<?xml version="1.0" standalone="no"?>
<!DOCTYPE svg PUBLIC "-//W3C//DTD SVG 1.1//EN" "http://www.w3.org/Graphics/SVG/1.1/DTD/svg11.dtd" >
<svg xmlns="http://www.w3.org/2000/svg">
<metadata></metadata>
<defs>
<font id="CronosRegular" horiz-adv-x="915" >
<font-face units-per-em="2048" ascent="1638" descent="-410" />
<missing-glyph horiz-adv-x="364" />
<glyph unicode="&#xfb01;" horiz-adv-x="968" d="M33 821q20 23 42.5 39.5t63.5 34.5q0 170 46 266t120 156q59 49 124 68.5t124 19.5q53 0 103.5 -17.5t70.5 -46.5q2 -16 -4 -30.5t-16 -26.5q-14 -16 -29.5 -26.5t-30.5 -4.5q-27 14 -55.5 22.5t-65.5 8.5q-47 0 -90 -21.5t-73.5 -68.5t-48 -121t-13.5 -178q10 0 46 -1 t87 -1t112.5 1t123.5 5q47 2 86 8t55 6t22.5 -26.5t6.5 -110.5v-727q0 -31 -8.5 -40t-30.5 -13q-18 -4 -31.5 -5t-26 -1t-28 -1t-39.5 -1q2 61 4 145t2 174v481q-27 -2 -57.5 -3t-75.5 -2t-105.5 -2t-146.5 -1v-125.5t1 -147.5t2 -155t1 -145.5t1 -121.5t1 -83 q-12 -4 -31.5 -7t-40 -4t-39 -2t-28.5 -1q-16 0 -20.5 5t-4.5 25q4 166 2 351.5t-2 410.5q-61 0 -83.5 10.5t-22.5 30.5z" />
<glyph unicode="&#xfb02;" horiz-adv-x="966" d="M33 819q16 23 40.5 40.5t65.5 35.5q4 166 47 259t107 153q53 49 119.5 73.5t132.5 24.5q53 0 91 -10.5t66 -26.5q29 14 62 25.5t49 11.5q14 0 20.5 -17.5t6.5 -89.5v-1028q0 -76 2 -150.5t6 -117.5q-12 -4 -29.5 -7t-38 -5t-39 -3t-32.5 -1q-27 0 -27 26v781 q-33 -6 -121 -11.5t-264 -1.5v-197.5t2 -229t3 -210t1 -139.5q-20 -8 -63 -12t-76 -4q-16 0 -20.5 6t-4.5 26q4 164 2 349.5t-2 410.5q-106 0 -106 39zM301 895q12 0 63.5 -1t114 -1h120.5t83 2v305q0 35 -14 49q-47 41 -136 41h-2q-45 0 -87 -22.5t-73.5 -70.5t-50 -123 t-18.5 -179z" />
<glyph horiz-adv-x="0" />
<glyph horiz-adv-x="2048" />
<glyph unicode="&#xd;" horiz-adv-x="364" />
<glyph unicode=" "  horiz-adv-x="364" />
<glyph unicode="&#x09;" horiz-adv-x="364" />
<glyph unicode="&#xa0;" horiz-adv-x="364" />
<glyph unicode="!" horiz-adv-x="354" d="M78 82q0 43 26.5 74.5t79.5 31.5h2q43 0 66.5 -32.5t23.5 -69.5q0 -47 -27.5 -78t-74.5 -31q-35 0 -65.5 26t-30.5 79zM100 1194q2 10 18.5 19.5t39 15.5t45 10t37.5 4q20 0 30.5 -10t10.5 -43q0 -25 -3.5 -83t-6.5 -133t-8 -159t-10 -156.5t-8 -126t-5 -67.5 q0 -29 -10.5 -38t-20.5 -15q-23 -10 -45.5 -16.5t-28.5 -6.5q-2 20 -4 77.5t-6 135.5t-8 166t-7.5 171t-6.5 150.5t-3 104.5z" />
<glyph unicode="&#x22;" horiz-adv-x="571" d="M61 1354q20 14 52 28.5t55 14.5h2q29 0 40 -31t7 -78q0 -35 -4 -77t-10 -83t-13.5 -76.5t-15.5 -58.5q-10 -16 -36.5 -28.5t-55.5 -14.5v97.5t-2 109.5t-6 106.5t-13 90.5zM354 1354q20 14 51 28.5t56 14.5h2q29 0 39 -31t8 -78q0 -35 -4 -77t-10.5 -83t-14.5 -76.5 t-16 -58.5q-8 -16 -36 -28.5t-56 -14.5v97.5t-1 109.5t-5.5 106.5t-12.5 90.5z" />
<glyph unicode="#" d="M49 514q4 23 12.5 41t16.5 33h155l58 272h-141q-20 0 -26.5 5t-2.5 22q6 25 13 43t18 35h159l56 241q10 6 37.5 14.5t48.5 8.5q12 0 15 -9.5t-1 -19.5l-53 -235h184l51 241q4 6 34 14.5t52 8.5q20 0 15 -29l-50 -235h117q37 0 31 -33q-14 -47 -33 -72h-139l-55 -272h137 q16 0 24.5 -4t3.5 -21q-4 -23 -12 -45t-18 -33h-160l-57 -297q-6 -8 -34 -16t-50 -8q-10 0 -13.5 9t0.5 22l60 290h-193l-59 -295q-2 -27 -29 -26q-8 0 -31.5 11t-39.5 24l61 286h-133q-35 0 -29 29zM334 588h186l55 272h-184z" />
<glyph unicode="$" d="M98 94q2 16 7.5 36t21.5 38q25 27 70 2q41 -23 98 -38t129 -15q104 0 162.5 50t58.5 140q0 72 -58.5 127t-156.5 115q-115 70 -182.5 144.5t-67.5 189.5q0 78 30 131t72 88t87 51t75 21l15 110q2 39 35 49q27 8 49 10.5t45 2.5l-21 -168q61 -4 122 -26t89 -48 q0 -14 -6 -33.5t-16 -36.5q-27 -35 -72 -12q-35 20 -78 32.5t-90 12.5q-27 0 -57.5 -9t-57 -29.5t-44 -52.5t-17.5 -77t20.5 -79t53 -63.5t74.5 -55t83 -54.5q43 -29 85 -58.5t75 -66.5t53.5 -84t20.5 -112q0 -84 -31 -141.5t-77 -95.5t-101 -57.5t-102 -23.5l-17 -151 q-2 -18 -13 -27.5t-28 -13.5q-23 -4 -45 -6.5t-45 0.5l21 190q-90 6 -159 32.5t-110 61.5z" />
<glyph unicode="%" horiz-adv-x="1345" d="M61 889q0 59 15.5 120.5t48.5 110.5t84 81t123 32h2q49 0 96 -17.5t83 -57.5t58.5 -104.5t22.5 -158.5q0 -63 -16.5 -124.5t-49 -109t-84 -77t-118.5 -29.5q-111 0 -188 82t-77 252zM182 891q0 -47 9.5 -90t27 -78t44 -55.5t63.5 -20.5q70 0 108.5 68.5t38.5 183.5 q0 117 -42 179.5t-99 62.5h-2q-35 0 -62.5 -20.5t-46 -54.5t-29 -79t-10.5 -96zM250 -4q76 127 173 288.5t200.5 334t205 342t187.5 311.5q14 27 43 -2q29 -22 37 -51q-133 -217 -328 -546t-436 -720q-14 -23 -23.5 -24t-19.5 10q-16 12 -25.5 27.5t-13.5 29.5zM754 303 q0 63 16 126t50 113t86 80.5t124 30.5h2q51 0 96.5 -18.5t80 -60.5t55 -107.5t20.5 -157.5q0 -63 -16.5 -123.5t-48 -106.5t-80.5 -75t-115 -29q-51 0 -99 17.5t-86 56.5t-61.5 101.5t-23.5 152.5zM874 305q0 -45 9.5 -87t28 -75.5t46 -54t64.5 -20.5q66 0 104.5 65.5 t38.5 179.5q0 121 -39 184.5t-104 63.5h-2q-35 0 -61.5 -21.5t-45 -56t-29 -81t-10.5 -97.5z" />
<glyph unicode="&#x26;" horiz-adv-x="1288" d="M82 317q0 68 24.5 122.5t60.5 99.5t79 80.5t80 64.5q-123 129 -123 268q0 70 23.5 127.5t63.5 96t95 60t119 21.5q53 0 102 -15t88 -48t61.5 -83t22.5 -120q0 -68 -28.5 -119t-68.5 -89t-83 -65.5t-70 -47.5q39 -39 84 -82t86 -82t73 -70t46 -43q57 102 111.5 199.5 t95.5 167.5q55 84 82 84q41 0 65.5 -15.5t38.5 -31.5l2 -23q-51 -53 -123.5 -166.5t-181.5 -300.5q76 -72 128 -122t85 -82.5t51.5 -52t26.5 -27.5l-8 -25q-20 -10 -54 -18.5t-75 -8.5q-18 0 -36.5 11.5t-31.5 27.5q-27 27 -66.5 68t-107.5 106q-49 -68 -99 -108.5 t-98.5 -63t-92.5 -30t-80 -7.5q-80 0 -148 24t-116 68t-75.5 107.5t-27.5 142.5zM248 340q0 -49 17.5 -92t47 -75t70.5 -49.5t90 -17.5q27 0 56.5 5.5t62.5 23t68.5 49t74.5 84.5q-45 43 -94 91.5t-95 93.5t-85 83.5t-62 63.5q-72 -51 -111.5 -115.5t-39.5 -144.5zM346 963 q0 -47 22.5 -100.5t90.5 -119.5q82 59 131 114.5t47 131.5q0 78 -40 118t-99 40q-66 0 -109 -54.5t-43 -129.5z" />
<glyph unicode="'" horiz-adv-x="278" d="M61 1354q20 14 52 28.5t55 14.5h2q29 0 40 -31t7 -78q0 -35 -4 -77t-10 -83t-13.5 -76.5t-15.5 -58.5q-10 -16 -36.5 -28.5t-55.5 -14.5v97.5t-2 109.5t-6 106.5t-13 90.5z" />
<glyph unicode="(" horiz-adv-x="606" d="M98 475v2q0 322 103.5 565.5t269.5 391.5q20 -12 36.5 -41t12.5 -56q-150 -166 -223.5 -374.5t-73.5 -436.5q0 -256 73 -466t224 -357q-8 -35 -29.5 -57.5t-41.5 -22.5q-53 37 -115 116t-114 190.5t-87 249.5t-35 296z" />
<glyph unicode=")" horiz-adv-x="606" d="M94 -281q150 166 223.5 375t73.5 436q0 256 -73.5 466t-223.5 358q8 35 29.5 57.5t42.5 22.5q53 -37 114.5 -116t113.5 -190.5t87 -251t35 -294.5v-2q0 -160 -26.5 -302.5t-75.5 -263t-118 -219t-151 -172.5q-23 12 -39 41t-12 55z" />
<glyph unicode="*" horiz-adv-x="694" d="M65 974.5q5 10.5 17 16.5l203 70l-179 96q-39 25 -20 53q20 35 61 64l179 -166l2 250q33 8 73 2q47 -4 41 -39l-51 -209l195 127q33 -25 43 -70q12 -41 -31 -55l-180 -61l188 -101q39 -27 19 -59q-10 -20 -26.5 -35.5t-33.5 -26.5l-188 168v-243q-33 -8 -88 4 q-35 6 -21 63l45 185l-202 -138q-16 10 -28.5 32t-16.5 44q-6 18 -1 28.5z" />
<glyph unicode="+" horiz-adv-x="1120" d="M125 455q2 47 14.5 75.5t44.5 28.5h318v205q0 41 -1 87t-5 73l73 8q29 6 39 -7.5t10 -58.5v-307h377q-2 -45 -13 -74.5t-50 -29.5h-314v-361q0 -23 -13 -36t-54 -17l-49 -4v418h-377z" />
<glyph unicode="," horiz-adv-x="311" d="M-39 -201q51 66 87 153t36 167q0 27 -3 45t-7 35q25 14 55.5 27.5t54.5 13.5h6q23 0 38.5 -30t15.5 -81q0 -43 -16.5 -89t-41 -88t-54.5 -77t-56 -53q-41 -25 -115 -23z" />
<glyph unicode="-" horiz-adv-x="581" d="M61 391q14 53 32 85t34 34q43 6 96 15.5t106.5 18.5t100.5 19t78 19l12 -29q-4 -12 -13 -30.5t-23.5 -37t-33 -33t-40.5 -20.5q-29 -10 -71 -19.5t-88 -16.5t-91 -13t-80 -6z" />
<glyph unicode="." horiz-adv-x="311" d="M55 82q0 43 28 74.5t79 31.5h4q41 0 65.5 -32.5t24.5 -69.5q0 -47 -28.5 -78t-73.5 -31q-35 0 -67 26t-32 79z" />
<glyph unicode="/" horiz-adv-x="696" d="M74 -193l418 1446q10 29 21 41.5t52 16.5l72 2l-412 -1432q-12 -41 -24.5 -55t-38.5 -14z" />
<glyph unicode="0" d="M57 606q0 213 51.5 339t116.5 190q45 47 108.5 72.5t133.5 25.5h2q86 0 147.5 -31t104.5 -81t69.5 -115.5t41 -135t19.5 -138t5 -126.5q0 -164 -28.5 -283.5t-82 -196.5t-128 -114t-166.5 -37q-74 0 -144.5 29t-126 100.5t-89.5 193.5t-34 308zM223 608q0 -152 19.5 -251 t52.5 -158.5t76 -84t88 -24.5q37 0 78 15.5t74.5 70.5t56 160.5t22.5 284.5q0 160 -21.5 258t-55 151t-73.5 70.5t-77 17.5h-2q-37 0 -79 -20.5t-78 -77.5t-58.5 -156.5t-22.5 -255.5z" />
<glyph unicode="1" d="M135 971l49 94q147 55 246.5 97t159.5 71l39 -29v-122t1 -201.5t1 -243.5t1 -246t1 -209v-133q0 -31 -11.5 -40t-33.5 -13q-29 -4 -65 -6t-58 -2v137t1 236.5t1 317.5v380q-31 -12 -72 -28.5t-85 -32t-87 -28t-76 -20.5z" />
<glyph unicode="2" d="M84 1057q70 82 164 129t192 47h2q92 0 156 -32t103.5 -82t57 -112.5t17.5 -125.5q0 -78 -27.5 -156t-80.5 -154q-25 -35 -50.5 -71.5t-65.5 -85.5t-98.5 -119t-146.5 -170q61 -4 131 -5t141.5 -1t141.5 1t133 5q-4 -33 -29.5 -64.5t-48.5 -42.5q-16 -10 -71.5 -18 t-137.5 -8q-145 0 -264 2t-199 18l-18 33l39 64q147 172 240.5 287.5t146.5 198.5t72.5 144.5t19.5 122.5q0 127 -58.5 181.5t-146.5 54.5q-39 0 -73.5 -11.5t-64.5 -27t-52.5 -31.5t-34.5 -29q-51 -39 -76 7q-14 25 -14 51z" />
<glyph unicode="3" d="M70 84l6 8q35 -10 90 -24.5t129 -14.5q90 0 156.5 23.5t111.5 63.5t66.5 92.5t21.5 107.5q0 111 -77.5 173t-225.5 62q-35 0 -58.5 -3t-45.5 -5l-17 15q14 29 26.5 52t27.5 38q43 10 94 29.5t95 51t72.5 74.5t28.5 103q0 72 -45 122t-139 50q-57 0 -107.5 -20.5 t-84.5 -51.5q-20 -16 -36 -19t-26 13q-10 14 -15 32.5t-1 37.5q20 27 53 51t73 43.5t85 32t90 12.5q98 0 160.5 -29.5t99.5 -73t50 -90.5t13 -79q0 -88 -45 -152q-23 -31 -57.5 -63.5t-103.5 -73.5q156 -37 224 -127t68 -203q0 -96 -41 -171t-111.5 -126t-163.5 -78.5 t-200 -27.5q-84 0 -132 13t-66 30q-18 20 -30.5 46.5t-12.5 55.5z" />
<glyph unicode="4" d="M37 438q29 51 72 120t93 143.5t102 150.5t99.5 141.5t86 115.5t63.5 73q43 35 99.5 57.5t95.5 30.5l28 -21q-78 -88 -153.5 -186t-148.5 -201.5t-139.5 -206t-121.5 -198.5q80 -10 171 -15.5t187 -3.5l7 361q31 12 57.5 20t66.5 17l29 -11v-387q18 0 60.5 3t82.5 5l5 -14 q-16 -31 -34 -50.5t-46 -39.5q-16 -8 -33.5 -10t-34.5 -6v-277q0 -25 -11 -36t-30 -15q-31 -6 -69.5 -8t-59.5 -2q2 59 5 146t3 194q-68 0 -138.5 2t-136 6t-117.5 9t-83 11q-12 8 -32.5 36t-24.5 46z" />
<glyph unicode="5" d="M117 672q8 49 24.5 130t35 163t35.5 150.5t30 94.5q31 0 104.5 3.5t154.5 8.5t151.5 9t92.5 8l9 -12q-4 -27 -15.5 -49.5t-33.5 -44.5q-12 -12 -31 -18.5t-56.5 -11.5t-102 -8t-169.5 -8q-23 -72 -41 -153.5t-31 -175.5q47 -10 109.5 -21.5t126.5 -29.5 q160 -43 240.5 -128t80.5 -227q0 -98 -37.5 -175t-104 -129t-155 -79.5t-188.5 -29.5q-80 0 -120 10t-56 22q-18 16 -28.5 46t-12.5 59l4 4q23 -8 74 -17.5t110 -9.5q61 0 123 16.5t111 51.5t80 88t31 129q0 104 -57.5 159.5t-162.5 84.5q-82 25 -168 38t-139 19z" />
<glyph unicode="6" d="M49 473q0 143 48 274.5t147 245.5q70 82 146.5 135.5t145 85t124 44t79.5 12.5q72 0 105 -68l-4 -8q-133 -29 -243 -86t-196 -152q-82 -92 -130 -212.5t-48 -266.5q0 -100 21.5 -173t56.5 -121t82 -70.5t98 -22.5q41 0 81 15.5t71 47t49 82t18 121.5q0 80 -20.5 131.5 t-51 81t-67.5 41t-72 11.5q-39 0 -67.5 -7.5t-50.5 -17.5q0 8 1 22.5t6 29t11 27.5t17 21q23 16 64.5 28.5t88.5 12.5q90 0 149.5 -35.5t94.5 -88t48 -112t13 -108.5q0 -82 -24.5 -157.5t-74.5 -133t-125 -92.5t-175 -35q-78 0 -152.5 26t-133 84t-94.5 153.5t-36 234.5z " />
<glyph unicode="7" d="M66 1126q6 23 31.5 54.5t56.5 54.5q27 -16 65 -23q23 -2 46.5 -3t49.5 -1h506l27 -43q-8 -76 -41 -182t-80 -224t-102.5 -238t-107.5 -221t-95 -174t-66 -95q-25 -25 -49 -36t-53 -20q-29 -4 -57.5 -6t-46.5 -2l-7 13q49 59 102.5 140t104.5 174t99.5 195.5t91.5 205 t76.5 202.5t54.5 188q-86 0 -195.5 -1t-273.5 -1q-82 0 -113 11.5t-24 31.5z" />
<glyph unicode="8" d="M66 287q0 57 18 101t49 79q27 29 74 68.5t119 87.5q-109 61 -152 140t-43 150q0 61 22.5 119t65.5 103t105.5 71.5t144.5 26.5h2q92 0 152.5 -29.5t97.5 -73t52 -92.5t15 -90q0 -55 -18 -100t-43 -72q-25 -29 -58.5 -58.5t-93.5 -68.5q57 -33 107.5 -66.5t87.5 -74.5 t58.5 -92t21.5 -115q0 -68 -27.5 -127t-80 -103t-126 -70t-163.5 -26q-115 0 -190 32t-119 80t-61 102.5t-17 97.5zM225 299q0 -53 19.5 -93t52.5 -67.5t75 -41t85 -13.5h2q35 0 74.5 10t73.5 35t56.5 62.5t22.5 93.5q0 37 -12 71.5t-43 67.5t-82 67.5t-127 71.5 q-80 -53 -138.5 -122.5t-58.5 -141.5zM281 934q0 -59 42 -114.5t158 -114.5q158 109 158 229q0 94 -49 142t-135 48h-2q-31 0 -62 -12t-55.5 -35.5t-39.5 -59.5t-15 -83z" />
<glyph unicode="9" d="M59 825q0 76 26 150t76 131t123.5 92t170.5 35h2q104 0 179 -42t123 -113.5t70.5 -165t22.5 -193.5q0 -154 -52 -304.5t-186 -279.5q-59 -59 -121.5 -97t-116.5 -60.5t-96 -31.5t-63 -9q-18 0 -32.5 5t-22.5 11q-18 12 -28.5 26.5t-16.5 30.5l2 6q35 6 83 20.5t100 39 t103.5 59.5t94.5 82q94 102 137 226t43 270q0 182 -61.5 293.5t-182.5 111.5q-49 0 -88 -22.5t-65.5 -60.5t-41 -86t-14.5 -99q0 -139 63.5 -199.5t160.5 -60.5q39 0 71.5 11t50.5 20q2 -16 -4 -50t-22 -51q-20 -20 -64.5 -33.5t-103.5 -13.5q-78 0 -138.5 27.5t-100.5 76 t-60.5 113t-20.5 135.5z" />
<glyph unicode=":" horiz-adv-x="311" d="M55 741q0 47 28 78t79 31q45 0 67.5 -32t22.5 -73q0 -47 -26.5 -76.5t-71.5 -29.5q-35 0 -67 25.5t-32 76.5zM59 82q0 43 27 74.5t80 31.5h2q41 0 65.5 -32.5t24.5 -69.5q0 -47 -27.5 -78t-74.5 -31q-35 0 -66 26t-31 79z" />
<glyph unicode=";" horiz-adv-x="311" d="M-37 -201q51 66 87 153t36 167q0 27 -3 45t-7 35q23 14 53.5 27.5t56.5 13.5h4q23 0 38.5 -30t15.5 -81q0 -43 -16.5 -89t-41 -88t-54.5 -77t-56 -53q-39 -27 -113 -23zM55 741q0 47 28 78t79 31h4q43 0 64.5 -32t21.5 -73q0 -47 -26.5 -76.5t-71.5 -29.5q-33 0 -66 24.5 t-33 77.5z" />
<glyph unicode="&#x3c;" horiz-adv-x="1120" d="M188 426q0 43 23 70l651 397q33 20 49 -14q10 -16 14.5 -38t6.5 -36l-600 -352v-7l600 -348q0 -14 -6 -40.5t-17 -43.5q-16 -27 -49 -8l-645 385q-12 8 -19.5 15.5t-7.5 19.5z" />
<glyph unicode="=" horiz-adv-x="1120" d="M123 248q2 51 15.5 77.5t47.5 26.5h809q-2 -49 -13 -76.5t-50 -27.5h-809zM123 629q2 51 15.5 77.5t47.5 26.5h809q-2 -53 -13 -78.5t-50 -25.5h-809z" />
<glyph unicode="&#x3e;" horiz-adv-x="1120" d="M188 96l600 353v6l-600 348q0 14 6.5 40.5t16.5 41.5q16 29 49 10l645 -385q27 -16 27 -35q0 -43 -23 -69l-651 -398q-33 -20 -49 12q-10 18 -14.5 40t-6.5 36z" />
<glyph unicode="?" horiz-adv-x="645" d="M76 1135q61 59 132 83.5t126 24.5h2q61 0 108.5 -20.5t79 -54t49 -77.5t17.5 -94q0 -78 -41 -146.5t-96 -141.5q-53 -70 -76 -126.5t-23 -97.5q0 -27 5.5 -51t13.5 -41q-8 -10 -27.5 -17t-34.5 -7q-14 0 -31.5 8t-32 25.5t-24.5 43t-10 62.5q0 59 23.5 116.5t68.5 123.5 q16 23 38 50t40 58t31.5 62.5t13.5 62.5q0 55 -30.5 92t-92.5 37q-49 0 -91 -17.5t-67 -35.5q-20 -12 -37.5 -3t-27.5 48zM221 82q0 43 26.5 74.5t80.5 31.5h2q41 0 65.5 -32.5t24.5 -69.5q0 -47 -27.5 -78t-75.5 -31q-35 0 -65.5 26t-30.5 79z" />
<glyph unicode="@" horiz-adv-x="1492" d="M82 508q0 170 54 314.5t153.5 249t239 163.5t311.5 59q129 0 234.5 -41t181 -114.5t116.5 -176t41 -225.5q0 -109 -31.5 -201t-88 -158.5t-132.5 -104t-162 -37.5q-31 0 -60.5 11t-49 38.5t-26.5 75t5 120.5q-70 -86 -125 -135t-97 -73.5t-71.5 -30.5t-48.5 -6 q-20 0 -40.5 10t-38 31.5t-28.5 56.5t-11 82q0 41 10 93t32.5 107.5t59.5 111.5t90 110q86 84 161 110.5t120 26.5h2q35 0 60.5 -10.5t47.5 -20.5q16 4 25.5 6t18.5 4t22.5 5.5t36.5 7.5q-10 -25 -25.5 -84.5t-31 -128t-29 -134t-19.5 -102.5q-23 -174 53 -174q35 0 79 19.5 t82 65.5t64.5 125t26.5 196q0 104 -34.5 186t-96 138t-144.5 87t-177 31q-143 0 -260 -52.5t-200 -142.5t-129 -211.5t-46 -261.5q0 -119 36 -217t101.5 -168.5t160.5 -110.5t216 -40q70 0 142.5 13t137.5 44q18 10 29.5 7t22.5 -25q4 -14 9 -28.5t3 -27.5 q-80 -47 -178.5 -67.5t-218.5 -20.5q-123 0 -229.5 42t-185.5 122t-125 195.5t-46 265.5zM543 424q0 -33 11 -52.5t34 -19.5q20 0 54 20.5t73 56.5t79 84t70 103q12 20 23.5 55.5t22 69t18.5 62t12 39.5q-20 16 -38.5 22t-31.5 6h-2q-43 0 -89 -24.5t-103 -89.5 q-37 -43 -62.5 -91.5t-41 -93.5t-22.5 -83.5t-7 -63.5z" />
<glyph unicode="A" horiz-adv-x="1247" d="M29 12v17q29 63 76 163.5t101 219t110.5 242.5t105.5 233.5t87 193.5t54 123l-26 62q29 8 67.5 14t57.5 6q20 0 30 -9t17 -24q35 -82 82 -197.5t96 -236.5t94 -232.5t76 -180.5q61 -141 99 -235.5t65 -150.5v-10q-14 -6 -34 -10t-40.5 -7t-37.5 -4t-28 -1q-18 0 -29.5 12 t-27.5 51t-30.5 75t-31 76t-36 89t-47.5 115h-514q-59 -137 -104.5 -238.5t-74.5 -157.5q-10 -22 -38 -22h-3q-20 0 -57 7t-59 17zM410 520h428q-86 219 -135.5 347t-69.5 175q-55 -125 -107.5 -246.5t-115.5 -275.5z" />
<glyph unicode="B" horiz-adv-x="978" d="M135 1260q25 6 106 18t185 12q133 0 211 -35.5t117 -86t49 -103.5t10 -90q0 -78 -38 -143.5t-101 -108.5q61 -20 106 -56t76 -82t46.5 -98.5t15.5 -103.5q0 -104 -37 -180t-103.5 -125t-156 -73.5t-193.5 -24.5q-49 0 -81 2t-61.5 6t-62.5 10t-82 18v977v74t-1 63.5 t-2 61.5t-3 68zM305 109q23 -10 58.5 -14.5t74.5 -4.5q61 0 116.5 18.5t95.5 54.5t63.5 89t23.5 125q0 127 -83 197.5t-236 70.5q-33 0 -61.5 -2t-51.5 -6v-528zM305 743q39 9 105 13q35 2 69 2q31 0 62 -2q35 14 71.5 66t36.5 136q0 45 -14 85t-45 71t-79 48.5t-118 17.5 q-23 0 -46 -2t-42 -7v-428z" />
<glyph unicode="C" horiz-adv-x="1165" d="M68 633q0 63 11 129.5t35.5 132.5t65.5 127t101 115q104 94 226 134t263 40q74 0 134.5 -11.5t106.5 -28t77.5 -35.5t44.5 -36q0 -49 -31 -76q-9 -9 -25 -9q-19 0 -49 13q-47 27 -115.5 44.5t-154.5 17.5q-100 0 -193.5 -36t-164 -105.5t-112.5 -172t-42 -233.5 q0 -119 35.5 -219t105.5 -174t172.5 -116t237.5 -42q47 0 93 5t88 14.5t75.5 18.5t54.5 20l6 -3q-6 -39 -21.5 -68.5t-37.5 -49.5q-33 -23 -111 -41.5t-178 -18.5q-170 0 -301 49.5t-219 137.5t-133 209.5t-45 267.5z" />
<glyph unicode="D" horiz-adv-x="1302" d="M137 1255q10 4 49 10.5t90.5 11.5t107.5 9t105 4q160 0 277 -29.5t200 -80t136 -115t82.5 -135t41 -141t11.5 -134.5q0 -143 -47 -272t-176 -240q-63 -53 -134 -85.5t-138.5 -50t-129 -22.5t-104.5 -5q-57 0 -104.5 3t-90.5 8t-85 13t-87 21v991v87v62.5t-1 47t-3 42.5z M307 117q39 -12 94.5 -17.5t116.5 -5.5q98 0 195.5 28t173.5 93.5t123 172t47 265.5q0 115 -36 211.5t-107.5 165t-181 107.5t-259.5 39q-55 0 -93 -3.5t-73 -9.5v-1046z" />
<glyph unicode="E" horiz-adv-x="862" d="M137 1251q29 10 65 17.5t72 11.5h504q-6 -35 -20.5 -60.5t-32.5 -43.5q-18 -10 -50 -11.5t-100 -1.5h-268v-446h455q-10 -41 -21.5 -64.5t-27 -35t-35 -14.5t-43.5 -3h-328v-479q31 -10 99.5 -13.5t144.5 -3.5q70 0 148.5 2.5t136.5 8.5l4 -4q-12 -39 -36 -71t-56 -44 q-20 -4 -73.5 -6t-158.5 -2q-123 0 -215 5t-129 15l-31 41v944v135.5t-4 122.5z" />
<glyph unicode="F" horiz-adv-x="843" d="M135 1251q27 8 70 16.5t88 12.5h522q-10 -41 -21.5 -62.5t-27.5 -37.5q-16 -10 -47 -13.5t-90 -3.5h-322v-491h473q-8 -78 -40.5 -97.5t-84.5 -19.5h-348q0 -176 1 -305t5 -246q-23 -8 -62.5 -12t-74.5 -4q-16 0 -25.5 6t-9.5 29v1009q0 82 -1 133.5t-5 85.5z" />
<glyph unicode="G" horiz-adv-x="1300" d="M68 631q0 100 21.5 183t56 148.5t78.5 116.5t87 86q82 66 200 106t265 40q94 0 167 -15.5t124 -35t81 -40t42 -32.5q0 -23 -8 -41.5t-21 -32.5q-12 -16 -29.5 -13t-44.5 15q-72 41 -155.5 58.5t-169.5 17.5q-111 0 -205 -39t-163.5 -109.5t-108.5 -172t-39 -226.5 q0 -154 50 -260t130 -173t179.5 -97.5t199.5 -30.5q63 0 122.5 8t98.5 27v217q0 72 -1 126t-9 101q29 8 73 19.5t72 11.5q14 0 21.5 -11.5t7.5 -43.5v-455q-20 -16 -62.5 -40t-74.5 -40q-47 -16 -111.5 -25.5t-150.5 -9.5q-135 0 -265.5 35t-231.5 113t-163.5 205t-62.5 309 z" />
<glyph unicode="H" horiz-adv-x="1298" d="M135 -12q4 61 5 153t1 221v648q0 201 -6 260q12 2 30.5 5t39 6t38 4t29.5 1q20 0 27.5 -17.5t7.5 -88.5v-459h684v504q0 31 9.5 40t31.5 13q25 4 64 6t67 2q-6 -117 -6 -368v-662q0 -109 2 -165t4 -87q-27 -6 -74 -11t-69 -5q-16 0 -22.5 6t-6.5 24v596q-16 -2 -37.5 -3 t-55.5 -2t-83 -1h-121h-387v-561q0 -29 -10 -38t-39 -13q-37 -6 -62.5 -7t-60.5 -1z" />
<glyph unicode="I" horiz-adv-x="448" d="M135 1270q10 2 28.5 5t40 5t41 4t31.5 2q20 0 25.5 -18.5t5.5 -85.5v-928q0 -106 2 -162.5t4 -87.5q-12 -4 -30.5 -7t-39 -5t-40 -3t-31.5 -1q-16 0 -23.5 7t-7.5 32v985q0 203 -6 258z" />
<glyph unicode="J" horiz-adv-x="448" d="M-84 -190l12 12q51 14 91 41.5t68 82t41 141.5t13 222v703q0 203 -6 258q12 2 31.5 5t41 5t40 4t31.5 2q20 0 24 -17.5t4 -86.5v-871q0 -104 -7 -183t-24.5 -137.5t-44 -100.5t-65.5 -76q-41 -39 -89 -59.5t-81 -20.5q-29 0 -49.5 23.5t-30.5 52.5z" />
<glyph unicode="K" horiz-adv-x="1122" d="M135 1270q12 2 31.5 5t40 5t40 4t32.5 2q20 0 24 -17.5t4 -88.5v-504l141 141t160 161t162 165t152 155q18 0 44.5 -3t55.5 -9q39 -6 39 -28q0 -21 -37 -58q-51 -49 -119.5 -117.5t-142.5 -140.5t-144.5 -141.5t-125.5 -122.5q51 -59 130.5 -151.5t168 -189.5 t173.5 -185.5t146 -139.5l-4 -10q-16 -10 -54 -14t-71 -4t-67.5 13t-82.5 66q-31 31 -77.5 83.5t-101 112.5t-110 123.5t-103.5 118t-82.5 95.5t-49.5 57v-397q0 -109 2 -165t4 -87q-10 -4 -28.5 -6t-39 -5t-40 -4t-29.5 -1q-20 0 -27.5 6t-7.5 29v987q0 201 -6 260z" />
<glyph unicode="L" horiz-adv-x="847" d="M135 1270q27 4 68 10t76 6q16 0 22 -17.5t6 -92.5v-1055q31 -10 97.5 -13.5t132.5 -3.5q72 0 156.5 2.5t142.5 8.5l4 -4q-8 -39 -32 -70t-60 -45q-20 -4 -73.5 -6t-158.5 -2q-123 0 -213 5t-131 15l-31 41v959q0 201 -6 262z" />
<glyph unicode="M" horiz-adv-x="1685" d="M76 6q14 76 39.5 208t57.5 296t66.5 345t69.5 353l-14 58q23 6 61.5 13t83.5 7q20 -25 44 -78t65 -161l291 -768q53 135 108.5 270t106.5 260t96 232.5t80 185.5l-4 39q8 4 25.5 7t37 6t38 5t30.5 2t20 -10t13 -43l131 -762q29 -162 50 -276.5t38 -188.5q-10 -4 -27.5 -7 t-36 -6t-36 -4t-29.5 -1q-35 0 -41 41q-8 43 -15.5 83t-14.5 85t-15.5 98t-16.5 123l-100 633q-29 -78 -72 -188.5t-94 -240.5t-105.5 -272.5t-107.5 -281.5q-8 -23 -17.5 -35.5t-31.5 -18.5q-16 -4 -40 -8t-40 -4q-16 49 -42 124t-57.5 164t-66.5 187t-70.5 196.5 t-69.5 191.5t-63 171q-16 -113 -40.5 -257t-49 -287.5t-47 -269.5t-35.5 -202q-8 -32 -31 -32h-1q-20 0 -59 2t-62 16z" />
<glyph unicode="N" horiz-adv-x="1325" d="M104 1253v17q8 2 29 5t43.5 5t43 4t32.5 2q23 0 51 -35q25 -33 76 -100.5t116.5 -157.5t144.5 -196.5t159 -216.5q78 -111 142.5 -202t105.5 -175q-4 82 -6.5 148.5t-3.5 119.5t-1 97v83v568q0 35 8.5 45t28.5 14q20 2 34.5 4t26 3t21.5 1h25q-4 -66 -5 -157t-1 -220 v-905q-8 -8 -46 -19.5t-67 -11.5q-10 0 -19.5 6.5t-9.5 8.5q-53 70 -116.5 156.5t-131 179t-137 187.5t-135.5 185q-55 82 -110.5 169t-114.5 188q2 -96 4 -167t3 -125t1 -96v-81v-525q0 -39 -9.5 -49t-31.5 -14q-23 -4 -51.5 -6t-52.5 -2q4 61 5 152t1 220v826z" />
<glyph unicode="O" horiz-adv-x="1433" d="M68 625q0 145 44 271t128 218t204.5 144.5t272.5 52.5h2q162 0 283.5 -57.5t202.5 -150.5t121 -212t40 -240q0 -135 -41 -258t-123 -217t-201.5 -150.5t-279.5 -56.5q-178 0 -302 63.5t-202 160t-113.5 212t-35.5 220.5zM248 641q0 -137 40 -240.5t106.5 -174 t153.5 -106.5t181 -36q96 0 180 35t145.5 104.5t97.5 173t36 242.5q0 145 -43 250.5t-110.5 173t-152.5 100.5t-169 33h-2q-96 0 -180.5 -36t-148 -105.5t-99 -174t-35.5 -239.5z" />
<glyph unicode="P" horiz-adv-x="966" d="M133 1266q45 8 124 16t165 8q104 0 193.5 -21.5t154 -67.5t101 -121.5t36.5 -182.5q0 -109 -39 -182.5t-96 -119.5q-58 -47 -122 -65q-58 -17 -105 -16h-10q-23 0 -42.5 4t-29.5 12q-18 10 -32.5 36t-14.5 55q14 -2 28.5 -3.5t32.5 -1.5q31 0 74 10.5t83 40t68.5 83 t28.5 139.5q0 94 -30.5 150.5t-76.5 87t-100.5 40t-101.5 9.5q-31 0 -58.5 -1t-56.5 -6v-917q0 -109 2 -163t4 -85q-23 -8 -65.5 -12t-71.5 -4q-16 0 -25.5 7t-9.5 30v966q0 74 -1 139.5t-7 135.5z" />
<glyph unicode="Q" horiz-adv-x="1433" d="M68 625q0 145 44 271t128 218t204.5 144.5t272.5 52.5h2q162 0 283.5 -57.5t202.5 -150.5t121 -212t40 -240q0 -104 -24.5 -204.5t-76 -185.5t-127 -149.5t-180.5 -99.5q49 -39 113 -85t133.5 -89t142 -77.5t140.5 -53.5q-23 -33 -63 -46t-85 -13q-70 0 -157.5 43 t-192.5 114q-74 49 -135 93.5t-94 72.5q-10 -2 -21.5 -2h-23.5q-176 0 -299 63.5t-200 160t-112.5 212t-35.5 220.5zM248 641q0 -137 42 -240.5t109.5 -174t153.5 -106.5t174 -36q98 0 182 34t145.5 102.5t97.5 173t36 243.5q0 147 -43 252.5t-112.5 173t-154.5 100.5 t-169 33h-2q-96 0 -180.5 -36t-146 -105.5t-97 -174t-35.5 -239.5z" />
<glyph unicode="R" horiz-adv-x="1034" d="M135 -12q6 123 6 372v687v120.5t-4 94.5q23 4 55.5 9t70.5 9t80 7t81 3q98 0 180 -18.5t140.5 -62.5t90 -114.5t31.5 -174.5q0 -76 -25.5 -133.5t-60.5 -98.5t-70.5 -66.5t-56.5 -37.5q25 -45 65 -109.5t118 -177.5q45 -70 80.5 -118t61.5 -80.5t45 -53t34 -33.5l-2 -8 q-12 -10 -49 -15t-66 -5q-41 0 -76 17t-71 67q-23 29 -46.5 61.5t-54 79.5t-71.5 112.5t-99 157.5q-25 41 -41 51.5t-49 12.5h-129v-498q0 -29 -6 -38t-29 -13q-41 -4 -78.5 -5t-54.5 -1zM303 649q14 -2 50 -3h36.5h37.5q38 1 71.5 3t44.5 6q25 8 52.5 29t49 53.5t35.5 76.5 t14 99q0 76 -22.5 127.5t-60.5 82t-86 44t-97 13.5q-33 0 -67.5 -2t-57.5 -9v-520z" />
<glyph unicode="S" horiz-adv-x="819" d="M57 88q2 41 9.5 57.5t17.5 32.5q55 -45 131 -66.5t139 -21.5q43 0 85 13.5t75 40t53.5 65.5t20.5 90q0 45 -14.5 80t-47 70.5t-84 76.5t-125.5 97q-76 55 -121.5 104t-71.5 93t-34 84t-8 77q0 47 17.5 104.5t61.5 107.5t119.5 84t192.5 34h2q37 0 73 -7.5t66.5 -17.5 t53 -23.5t34.5 -25.5q1 -6 1 -11q0 -28 -17 -59q-10 -18 -26.5 -19t-36.5 9q-35 16 -77 24.5t-87 8.5q-37 0 -74 -10.5t-66.5 -33t-49 -58t-19.5 -87.5q0 -45 17.5 -81.5t48 -69.5t72.5 -65.5t93 -69.5q70 -51 123 -96.5t89 -91.5t53.5 -96t17.5 -114q0 -86 -33 -151.5 t-89 -108.5t-130 -65.5t-156 -22.5q-94 0 -165.5 20.5t-104.5 49.5q-29 23 -29 49z" />
<glyph unicode="T" horiz-adv-x="1067" d="M33 1210q10 27 27.5 48.5t29.5 31.5q10 -4 26.5 -5l49.5 -3t86 -2h137h676q-2 -41 -25.5 -73.5t-42.5 -43.5h-381v-909q0 -106 2.5 -162.5t4.5 -87.5q-31 -8 -70 -12t-72 -4q-16 0 -23 7t-7 30v1138h-385q-38 0 -38 26q0 9 5 21z" />
<glyph unicode="U" horiz-adv-x="1318" d="M131 1270q10 2 28.5 5t39 5t39 4t30.5 2q25 0 30 -17.5t5 -90.5v-562q0 -166 34 -268t87 -158.5t116.5 -76t125.5 -19.5q74 0 140 24.5t116.5 88t80 172t29.5 274.5v574q0 29 10.5 38t26.5 13q45 4 66.5 6t52.5 2q-6 -121 -6 -371v-266q0 -219 -48.5 -352t-125 -206 t-171 -97.5t-184.5 -24.5q-121 0 -216 34t-161.5 112t-102.5 203.5t-36 312.5v377q0 201 -6 262z" />
<glyph unicode="V" horiz-adv-x="1187" d="M33 1245q31 16 71.5 28.5t71.5 12.5q10 0 19.5 -6t18.5 -23.5t22.5 -50t33.5 -88.5q49 -137 131 -362.5t197 -546.5q27 74 62.5 164t72.5 184t73 186.5t66 167.5q31 78 52.5 132.5t37 96.5t27.5 76.5t27 71.5q41 -4 63.5 -6t50.5 -12q25 -13 25 -42q0 -16 -8 -38 q-25 -61 -67 -160.5t-111 -263.5q-41 -96 -78 -185t-73 -175.5t-71.5 -173.5t-74.5 -177q-18 -43 -39 -57q-16 -10 -46 -16.5t-67 -6.5q-16 45 -50 138.5t-75 205t-85 230.5t-81 215q-35 92 -63.5 163.5t-51 128t-43 102.5t-38.5 87z" />
<glyph unicode="W" horiz-adv-x="1765" d="M37 1249q12 8 31.5 14.5t40 11.5t39 8t28.5 3t18.5 -5t16.5 -21.5t18.5 -45t24.5 -77.5q31 -104 97.5 -322.5t170.5 -585.5q23 82 55.5 191.5t71.5 237.5t82 268.5t86 283.5q0 12 -2 26.5t-6 25.5q27 10 55.5 17t57.5 7q16 0 24 -11t17 -34q18 -61 92.5 -315t199.5 -707 q76 236 132.5 411t96.5 302t67.5 213t43.5 141q12 -2 45 -5t60 -7q28 -5 28 -38q0 -17 -8 -42q-29 -86 -53.5 -157.5t-52.5 -159.5q-33 -96 -70 -205t-73.5 -217.5t-71.5 -210t-64 -181.5q-12 -31 -23.5 -44t-21.5 -21q-16 -8 -50 -15.5t-62 -7.5q-18 68 -49 176.5 t-70 244.5t-84 292t-92 320q-16 -57 -41 -137t-51.5 -168.5t-55 -181.5t-54.5 -177t-46.5 -153.5t-32.5 -112.5q-12 -39 -23.5 -55.5t-27.5 -26.5q-16 -8 -45.5 -14.5t-56.5 -6.5q-12 39 -42 135.5t-69 221.5t-83 264t-85 266q-16 53 -34.5 109.5t-37 107.5t-34 95.5 t-27.5 74.5z" />
<glyph unicode="X" horiz-adv-x="1130" d="M23 23q37 51 88 122.5t110.5 153.5t124 172t127.5 178q-47 70 -105.5 156t-116.5 169t-108.5 152.5t-79.5 110.5l11 20q35 10 69.5 19.5t61.5 9.5q14 0 27.5 -15.5t39.5 -53.5q43 -63 79 -114.5t71 -102t71.5 -103.5t84.5 -121q96 131 176 248t147 215q18 25 29.5 36 t25.5 11q18 0 55.5 -8t61.5 -23l6 -12q-25 -35 -67.5 -94t-99 -135t-122 -165t-133.5 -183q98 -143 171 -249t127.5 -182.5t91 -128t61.5 -86.5v-14q-23 -8 -61.5 -15t-83.5 -7q-14 0 -29.5 7t-32.5 34q-31 45 -65.5 96t-75.5 112.5t-91.5 135t-113.5 166.5 q-47 -68 -99.5 -146t-102.5 -149.5t-92 -132t-64 -93.5q-8 -14 -21.5 -20t-28.5 -6q-23 0 -62.5 5t-59.5 13z" />
<glyph unicode="Y" horiz-adv-x="1107" d="M33 1247v13q31 10 70.5 18t68.5 8q35 0 104 -104q27 -39 63 -89.5t74 -105.5t78.5 -114.5t79.5 -114.5q18 25 50 68.5t70 97t79 111t76 107.5t61.5 89t36.5 55q41 0 66.5 -5t46.5 -11q18 -6 22 -26q1 -2 1 -6q0 -18 -19 -44q-14 -18 -47 -63.5t-75 -101.5t-88 -117.5 t-87 -115t-69.5 -92t-37.5 -49.5q-12 -16 -16 -37.5t-4 -42.5v-325q0 -104 2 -159.5t4 -86.5q-23 -8 -61.5 -12t-81.5 -4q-16 0 -22.5 7t-6.5 30v534q0 55 -14 86q-10 20 -46 74.5t-87 126.5q-31 43 -69 96t-77 107.5t-77 105.5t-68 92z" />
<glyph unicode="Z" horiz-adv-x="1097" d="M47 55q100 133 211 289t214 308.5t189.5 287.5t139.5 225h-594q-90 0 -109.5 13.5t-11.5 35.5q12 31 28.5 50.5t32.5 33.5q61 -18 160 -18h701q-10 -47 -20.5 -78t-33.5 -76q-12 -25 -47 -81t-85 -135t-113.5 -175t-133 -201.5t-143.5 -212t-143 -206.5q47 -4 115.5 -6.5 t145.5 -4.5t155.5 -2h150.5t129 2t88 5l4 -5q-23 -45 -50.5 -71.5t-49.5 -34.5q-6 -2 -20.5 -4t-45 -3t-86 -2t-145.5 -1q-152 0 -257.5 1t-175 3t-109.5 5t-58 7q-31 27 -33 51z" />
<glyph unicode="[" horiz-adv-x="606" d="M169 -18.5q1 102.5 2 220t1 232.5v2q0 51 1 128t2 166t3 182.5t4 177.5t4 151.5t4 106.5q2 2 41 8t89.5 12t101.5 10t80 4q20 -35 20 -75q0 -6 -8 -9.5t-35 -7.5q-47 -6 -84 -12t-59 -10q-16 -4 -23.5 -14.5t-9.5 -34.5q-4 -23 -8 -218.5t-8 -580.5v-311.5t1 -186 t2 -95.5t1 -38q6 -41 45 -47q25 -4 57.5 -8t85.5 -10q27 -4 25 -25q-4 -39 -21 -66q-63 0 -118.5 4.5t-96.5 10.5t-66.5 12t-27.5 10q-4 45 -5 127t0 184.5z" />
<glyph unicode="\" horiz-adv-x="612" d="M72 1253q-6 23 1 38.5t52 17.5l53 4l363 -1432q8 -41 -0.5 -54t-38.5 -15l-70 -5z" />
<glyph unicode="]" horiz-adv-x="606" d="M86 -291q0 6 8 9t35 8q47 6 83 12t58 10q16 4 23.5 14.5t9.5 34.5q4 23 8 218.5t8 580.5v311.5t-1 186t-2 95.5t-1 38q-6 41 -45 47q-23 4 -55.5 8t-85.5 10q-27 4 -25 25q4 39 21 65q63 0 117.5 -4t96.5 -10t66.5 -12t28.5 -10q4 -45 5 -127t0 -184.5t-2 -220.5t-1 -232 v-2q0 -51 -1 -128t-2 -166t-3 -182.5t-4 -177.5t-4 -151.5t-4 -106.5q-4 -4 -42 -9t-88 -11t-101.5 -10.5t-80.5 -4.5q-20 35 -20 76z" />
<glyph unicode="^" horiz-adv-x="1120" d="M150 465l333 729q6 16 15.5 22.5t31.5 10.5q23 4 42.5 6t48.5 0l350 -768q-10 -8 -41 -20.5t-53 -12.5q-16 0 -24.5 14.5t-18.5 30.5l-277 625l-281 -639q-10 -18 -17 -24.5t-17 -6.5q-12 0 -44 10.5t-48 22.5z" />
<glyph unicode="_" horiz-adv-x="1024" d="M0 -154h1024v-102h-1024v102z" />
<glyph unicode="`" horiz-adv-x="819" d="M213 1294q-16 18 6 41q49 43 92 43h2q10 0 32 -30.5t45.5 -73.5t45 -89t33.5 -79q14 -29 -8 -45q-16 -12 -25.5 -18.5t-19.5 -8.5q-18 27 -41 59.5t-49.5 67.5t-55 70t-57.5 63z" />
<glyph unicode="a" horiz-adv-x="837" d="M47 199q0 84 49 140t116 93t134.5 56.5t106.5 29.5q27 4 50 9t42 10v69q0 35 -9.5 68t-30 58.5t-51 40.5t-75.5 15q-53 0 -109.5 -28.5t-97.5 -59.5q-22 -15 -39 -15q-32 0 -49 52l-10 35q20 23 56 49.5t82 48t97 36t105 14.5q78 0 131 -25t87 -69t49 -104t15 -130 q0 -33 -1 -87t-2 -114.5t-1 -122t2 -106.5q0 -68 66 -68q10 0 24.5 3t24.5 7v-69q-10 -20 -43 -40t-84 -20q-61 0 -95 39t-42 92q-18 -20 -46 -43.5t-63 -43t-76 -32t-84 -12.5q-104 0 -166.5 65.5t-62.5 158.5zM207 221q0 -53 30.5 -84t88.5 -31q31 0 61.5 11.5t57 28 t49 36t34.5 37.5q6 10 10.5 24.5t4.5 43.5v149q-61 -10 -122 -27.5t-108 -43t-76.5 -61.5t-29.5 -81v-2z" />
<glyph unicode="b" horiz-adv-x="1017" d="M121 1366q14 6 33.5 10t40 8.5t37 6.5t26.5 2q8 0 13 -3.5t8.5 -17.5t5.5 -40.5t2 -71.5l-2 -426q53 29 120.5 57.5t155.5 28.5q68 0 139.5 -25t130 -78t95.5 -137t37 -201q0 -84 -19.5 -150.5t-50.5 -116.5t-70 -88t-75 -63q-74 -47 -160 -66.5t-158 -19.5 q-37 0 -78 5.5t-77.5 12.5t-66.5 15t-46 17q-18 10 -25.5 21t-7.5 38v1053q0 96 -2 147t-6 82zM285 115q29 -12 72.5 -20.5t84.5 -8.5q68 0 131.5 23.5t112.5 71.5t79 119t30 165q0 80 -22.5 140.5t-62.5 102.5t-94.5 62.5t-117.5 20.5q-53 0 -110.5 -19.5t-102.5 -48.5 v-608z" />
<glyph unicode="c" horiz-adv-x="821" d="M55 440q0 70 15.5 128.5t40 104.5t55.5 82t61 60q66 53 146 79t159 26q57 0 104.5 -11.5t80.5 -26t52 -29t26 -24.5q0 -16 -8.5 -36.5t-18.5 -36.5q-12 -16 -29.5 -14.5t-36.5 12.5q-43 23 -90 34t-92 11q-68 0 -123 -27t-94 -73t-60.5 -108.5t-21.5 -135.5 q0 -104 36 -174t89 -111t114.5 -57.5t112.5 -16.5q53 0 101.5 8.5t87.5 22.5l8 -12q-4 -29 -16.5 -58.5t-34.5 -44.5q-29 -16 -78 -26.5t-109 -10.5q-72 0 -154.5 20.5t-154 74t-120 142.5t-48.5 228z" />
<glyph unicode="d" horiz-adv-x="1021" d="M55 418q0 135 50.5 231t130.5 162q72 57 151.5 83t161.5 26q59 0 108.5 -12.5t71.5 -26.5v288q0 80 -2 123t-6 74q27 10 70 18.5t65 8.5q8 0 13 -3.5t8.5 -17.5t5.5 -40.5t2 -71.5v-1049q0 -74 32.5 -96.5t81.5 -28.5v-35q-16 -29 -36.5 -52.5t-47.5 -23.5 q-70 0 -114.5 36t-52.5 81q-66 -55 -137.5 -86t-149.5 -31q-80 0 -152.5 28t-129 83t-90.5 138t-34 194zM223 438q0 -78 22.5 -139t60.5 -104t88 -67t108 -24q63 0 124.5 26t102.5 67v555q-29 23 -77 39t-105 16q-59 0 -116.5 -24.5t-103.5 -70.5t-75 -116t-29 -158z" />
<glyph unicode="e" horiz-adv-x="847" d="M55 430q0 98 28 187.5t82 156t131 106.5t175 40q86 0 147.5 -29t101.5 -76t59.5 -107.5t21.5 -123.5q0 -16 -1 -35t-5 -31q-2 -12 -20.5 -24.5t-44 -22.5t-54.5 -17.5t-53 -11.5q-20 -2 -64.5 -4t-102.5 -3q-29 0 -58.5 -0.5t-61.5 0.5q-62 1 -119 3q0 -82 22.5 -145.5 t64.5 -106.5t100.5 -65.5t127.5 -22.5q70 0 124.5 14.5t78.5 24.5l8 -14q-4 -41 -31.5 -75t-49.5 -44q-18 -8 -64.5 -18.5t-105.5 -10.5q-78 0 -161 22.5t-153 88.5q-59 59 -91 150.5t-32 193.5zM225 549q59 -2 120 -3q30 0 58.5 -0.5t54.5 0.5q52 1 90 2t52 1q20 0 31.5 12 t11.5 31v7q0 93 -48 151q-50 60 -144 61h-2q-80 0 -144.5 -69.5t-79.5 -192.5z" />
<glyph unicode="f" horiz-adv-x="501" d="M33 821q18 23 41.5 40.5t64.5 33.5q0 168 37 263t107 155q59 53 117.5 72.5t111.5 19.5q47 0 83 -14.5t46 -30.5q1 -5 1 -9q0 -11 -4 -23q-5 -15 -13 -30q-14 -25 -29.5 -30.5t-32.5 -1.5q-31 14 -76 14q-39 0 -73.5 -21.5t-61 -67.5t-40.5 -119q-12 -57 -12 -133 q0 -22 1 -44q12 0 50 -1t82 -1t85 1t60 5q-12 -66 -54 -96q-20 -16 -77.5 -19.5t-149.5 -3.5v-196.5t2 -229t3 -211t1 -139.5q-12 -4 -31.5 -7t-40 -5t-39 -3t-28.5 -1q-16 0 -20.5 6t-4.5 26q3 109 3 229q0 59 -1 121q-2 187 -2 410q-61 2 -83.5 11.5t-22.5 29.5z" />
<glyph unicode="g" horiz-adv-x="866" d="M18 -190q0 70 56.5 126t132.5 97q-78 29 -114 73t-40 89q0 14 19 24q45 29 80.5 56.5t58.5 50.5q-63 43 -103 108.5t-40 151.5q0 70 25.5 131t71.5 106t109.5 71t137.5 26h2q86 0 137 -20.5t80 -39.5q72 0 132 5t95 9q2 -8 4 -18t2 -25q0 -31 -10 -56t-33 -30h-121 q18 -41 24.5 -73.5t6.5 -75.5q0 -78 -26.5 -137.5t-71.5 -99.5t-104.5 -60t-122.5 -20q-35 0 -56.5 3t-48.5 11q-23 -23 -38 -37t-32 -27q-14 -10 -14 -20q0 -25 36 -45.5t109 -22.5q72 -4 149 -4t130 -4q121 -10 177 -69.5t56 -151.5q0 -88 -38.5 -154.5t-104 -111.5 t-151.5 -67.5t-181 -22.5q-184 0 -282.5 71.5t-98.5 182.5zM176 -170v-2q4 -78 72.5 -121t185.5 -43q61 0 114.5 16.5t92.5 45t61.5 66.5t22.5 81q0 51 -36 87t-138 40q-50 3 -93 3h-20q-51 -1 -94 -3q-23 0 -43 -10q-43 -20 -84 -64.5t-41 -95.5zM223 596 q0 -98 52.5 -156.5t132.5 -58.5q47 0 80.5 17.5t55 47t32 68.5t10.5 82q0 94 -45 156.5t-133 62.5h-2q-76 0 -129.5 -57.5t-53.5 -161.5z" />
<glyph unicode="h" horiz-adv-x="1001" d="M121 1366q41 12 78 19.5t59 7.5q6 0 11 -3.5t8.5 -17.5t5.5 -40.5t2 -71.5v-484q41 41 81 68.5t74 44.5q29 14 65 22.5t77 8.5q86 0 142 -31t89 -81t46 -115.5t13 -133.5v-299v-162.5t5 -93.5q-61 -16 -138 -16q-16 0 -20 8t-4 24v525q0 74 -14.5 122t-39 75.5t-55.5 39 t-63 11.5q-47 0 -87 -15.5t-72 -37t-57.5 -46t-41.5 -45.5v-604q0 -27 -7.5 -37t-29.5 -14q-33 -4 -65.5 -5t-59.5 -1q4 49 5 141t1 238v770q0 92 -2 145t-6 84z" />
<glyph unicode="i" horiz-adv-x="413" d="M117 1245q0 51 31.5 74.5t62.5 23.5h2q37 0 59.5 -26.5t22.5 -67.5q0 -39 -24.5 -67.5t-65.5 -28.5t-64.5 24.5t-23.5 67.5zM121 887q12 4 31.5 8t39 7t38 4t28.5 1q8 0 13 -3t8.5 -16.5t5.5 -39t2 -68.5v-731q0 -29 -9.5 -38t-29.5 -13t-52 -6t-73 -4q2 61 4 145t2 176 v344q0 96 -2 147.5t-6 86.5z" />
<glyph unicode="j" horiz-adv-x="413" d="M-78 -385l4 16q45 20 83 56.5t64.5 95.5t41 148t14.5 219v507q0 94 -2 145.5t-6 84.5q12 4 31.5 8t39 7t38 4t28.5 1q8 0 13 -3t8.5 -16.5t5.5 -39t2 -68.5v-643q0 -131 -18.5 -236.5t-65.5 -187.5q-53 -84 -113.5 -120.5t-87.5 -36.5q-25 0 -46.5 17t-33.5 42zM117 1239 q0 53 31.5 78.5t62.5 25.5h2q37 0 59.5 -27.5t22.5 -68.5t-24.5 -70.5t-65.5 -29.5q-37 0 -62.5 24.5t-25.5 67.5z" />
<glyph unicode="k" horiz-adv-x="884" d="M121 1364q10 6 29.5 11t40 9.5t39 6.5t28.5 2q6 0 11 -3.5t8.5 -17.5t5.5 -40.5t2 -71.5v-750q51 45 109.5 102.5t115.5 114.5t106.5 108.5t81.5 84.5q23 0 52.5 -2.5t58.5 -12.5q31 -10 17.5 -34.5t-74.5 -84.5q-59 -57 -130 -123.5t-167 -154.5q33 -43 91 -114.5 t122.5 -147.5t125 -140.5t97.5 -95.5l-4 -8q-16 -10 -49 -14t-68 -4q-39 0 -64.5 13t-56.5 48q-35 33 -85 90.5t-102 122t-100.5 125.5t-76.5 102v-436q0 -31 -10.5 -41t-36.5 -14q-29 -4 -52.5 -5t-62.5 -1q4 61 5 153t1 221v775q0 92 -2 143t-6 84z" />
<glyph unicode="l" horiz-adv-x="413" d="M121 1366q14 6 33.5 11t39 8.5t37 5.5t27.5 2q8 0 13 -3.5t8.5 -17.5t4.5 -40.5t1 -71.5v-990q0 -76 2 -150.5t6 -117.5q-12 -4 -32.5 -7t-41 -5t-38 -3t-25.5 -1q-27 0 -27 26v1127q0 92 -2 144t-6 83z" />
<glyph unicode="m" horiz-adv-x="1536" d="M88 827v25q10 16 30.5 34.5t37.5 28.5q27 4 45 -4q41 -10 60.5 -55t23.5 -92q53 59 92 84.5t74 42.5q29 12 57.5 20.5t71.5 8.5q92 0 152.5 -44.5t90.5 -121.5q47 53 85 81.5t79 51.5q29 16 62.5 24.5t76.5 8.5q78 0 131.5 -27t87 -72t48 -107.5t14.5 -131.5v-330 q0 -178 6 -248q-29 -4 -65.5 -10t-71.5 -6q-25 0 -25 30v533q0 129 -46 184.5t-122 55.5q-43 0 -78.5 -13.5t-64.5 -34t-52.5 -46t-37.5 -48.5v-600q0 -33 -6 -42t-31 -13q-37 -4 -67.5 -5t-57.5 -1q6 98 6 379v190q0 127 -43 180.5t-121 53.5q-43 0 -78.5 -14.5t-65.5 -37 t-53.5 -49t-39.5 -51.5v-598q0 -27 -8.5 -35t-30.5 -12q-33 -4 -64.5 -5t-58.5 -1q6 98 6 379v344q0 53 -13 78.5t-36 37.5z" />
<glyph unicode="n" horiz-adv-x="999" d="M88 827v25q10 16 30.5 34.5t37.5 28.5q27 4 45 -4q41 -10 60.5 -53t23.5 -96q76 82 151 121q29 16 66 26.5t76 10.5q84 0 140 -28t90 -75t48 -112.5t14 -139.5v-311q0 -92 3.5 -153.5t7.5 -96.5q-31 -4 -68 -10t-74 -6q-27 0 -26 28l2 541q0 127 -48.5 180.5t-131.5 53.5 q-41 0 -77 -15.5t-68 -38t-56.5 -51.5t-40.5 -53v-586q0 -33 -8.5 -42t-32.5 -11q-31 -4 -61.5 -4t-59.5 -2q6 98 6 379v344q0 53 -13 78.5t-36 37.5z" />
<glyph unicode="o" horiz-adv-x="1017" d="M55 442q0 109 37 200t109 155q59 59 137 91t166 32h2q113 0 197.5 -38t143 -101.5t88.5 -148.5t30 -179q0 -74 -15.5 -132.5t-38 -104.5t-51.5 -81t-55 -57q-53 -47 -129 -75t-162 -28q-115 0 -201 40t-143 105.5t-86 149.5t-29 172zM223 457q0 -92 25.5 -163t66.5 -117 q41 -45 95 -69q50 -22 105 -22h9q47 0 95.5 19.5t88.5 62.5t64.5 112.5t24.5 168.5q0 86 -23.5 153.5t-63.5 113.5t-92.5 69.5t-109.5 23.5h-2q-53 0 -103.5 -22.5t-90.5 -66.5t-64.5 -109.5t-24.5 -153.5z" />
<glyph unicode="p" horiz-adv-x="1036" d="M88 825v31q12 16 26.5 29.5t28.5 23.5q20 10 41 11q37 0 68 -36t35 -110q92 78 165.5 112t159.5 34q66 0 131.5 -26t118.5 -80t87 -138t34 -199q0 -131 -50 -236.5t-142 -174.5q-68 -51 -146 -71t-137 -20q-70 0 -128 17.5t-87 34.5v-404q0 -27 -7 -35t-32 -16 q-33 -4 -62.5 -6t-60.5 -2q4 41 5 128t1 230v801q0 51 -15.5 71.5t-33.5 30.5zM293 154q23 -20 81 -45t128 -25q39 0 93 18.5t102 62.5t82 116.5t34 183.5q0 154 -72.5 240t-177.5 86q-43 0 -85 -15.5t-76.5 -36t-63.5 -44t-45 -38.5v-503z" />
<glyph unicode="q" horiz-adv-x="1013" d="M55 424q0 141 62.5 245.5t156.5 164.5q61 41 133 63.5t156 22.5q66 0 117 -13.5t80 -25.5l117 41h16q-2 -47 -5 -173t-3 -343v-781q0 -29 -11.5 -39t-50.5 -14q-29 -4 -56.5 -6t-45.5 -2q4 59 5 141t1 211v135q-47 -33 -115.5 -54.5t-128.5 -21.5q-84 0 -161.5 29 t-137 86t-94.5 140t-35 194zM223 440q0 -74 21.5 -135t61.5 -105t97.5 -70t128.5 -26q53 0 107.5 15.5t87.5 38.5v608q-29 16 -65.5 29.5t-108.5 13.5q-51 0 -109.5 -20.5t-107.5 -65.5t-81 -114.5t-32 -168.5z" />
<glyph unicode="r" horiz-adv-x="626" d="M68 823v23q6 14 19 30.5t28 28.5q25 14 45 15q53 0 87 -56.5t36 -142.5q47 98 111.5 148.5t131.5 50.5q37 0 63.5 -14.5t37.5 -28.5q-2 -20 -8.5 -51t-22.5 -54q-20 -31 -53 -18q-18 6 -34.5 8t-33.5 2q-35 0 -80 -38t-78 -116q-12 -29 -18 -53.5t-6 -58.5v-455 q0 -23 -6 -33t-29 -14q-35 -4 -67.5 -6t-59.5 -2q6 98 6 379v335q0 41 -16.5 73t-52.5 48z" />
<glyph unicode="s" horiz-adv-x="657" d="M45 68q0 23 9 45t22 34q20 20 57 -4q39 -23 83 -36t95 -13q70 0 112 39t42 96q0 41 -23.5 69t-76.5 58q-20 12 -46 26.5t-49.5 29t-44 27t-32.5 20.5q-49 33 -79 82t-30 114q0 59 23.5 108.5t62.5 84.5t91 53.5t110 18.5h2q82 0 130 -25t60 -41q2 -18 -5 -39.5t-19 -34.5 q-16 -27 -52 -10q-63 33 -127 33q-59 0 -91.5 -40t-32.5 -89q0 -31 14 -52.5t45 -43.5q12 -8 38.5 -23.5t58.5 -33t66 -37t58 -38.5q106 -76 107 -190q0 -72 -28 -125t-74 -88t-104.5 -51.5t-117.5 -16.5q-86 0 -155.5 29t-98.5 64z" />
<glyph unicode="t" horiz-adv-x="651" d="M53 815q6 16 28.5 43t49.5 54.5t51.5 51t34.5 31.5q20 16 42 28.5t56 20.5q-4 -49 -6 -84.5t-2 -64.5h326q-8 -37 -19.5 -57.5t-25 -31.5t-27.5 -15.5t-26 -4.5q-29 -2 -45.5 -3t-38 -2t-54 -1h-92.5q-4 -82 -5 -161.5t-1 -149.5t1 -125t5 -88q4 -47 17.5 -78t33 -48 t44 -23.5t51.5 -6.5q43 0 83.5 15.5t67.5 34.5l10 -15l2 -20q-2 -57 -41 -88q-31 -25 -80 -38.5t-102 -13.5q-129 0 -186.5 75t-57.5 192v536q-55 0 -74.5 10.5t-19.5 26.5z" />
<glyph unicode="u" horiz-adv-x="993" d="M121 887q25 10 68.5 15t68.5 5q6 0 11 -3t8.5 -16.5t5.5 -39t2 -68.5v-415q0 -86 17 -137.5t45 -78t60.5 -35t63.5 -8.5q37 0 73 12.5t64.5 32t52 42t35.5 45.5v589q0 35 6.5 48.5t24.5 17.5q37 6 69.5 10t61.5 4q0 -35 -3 -134t-3 -232v-328q0 -39 8 -63.5t22.5 -39 t33 -20.5t38.5 -10v-31q-8 -23 -30.5 -48.5t-53.5 -25.5q-59 0 -104 40t-53 106q-51 -53 -93 -80t-71 -39q-59 -27 -123 -27q-154 0 -225.5 88.5t-71.5 235.5v356q0 94 -2 145.5t-6 86.5z" />
<glyph unicode="v" horiz-adv-x="845" d="M25 870q20 16 61 33t68 17q25 0 41 -43q14 -39 41.5 -118t61.5 -176.5t69.5 -204t66.5 -200.5q25 70 61.5 169t75.5 203.5t74 203t57 166.5q57 0 107 -25q23 -9 23 -31q0 -23 -31 -98q-66 -156 -137.5 -334t-149.5 -371q-14 -29 -25.5 -44t-27.5 -21q-23 -8 -50.5 -13.5 t-50.5 -7.5q-14 43 -32.5 93.5t-44 120t-59.5 163.5t-81 221q-27 68 -45 115t-31.5 81t-23.5 57.5t-18 43.5z" />
<glyph unicode="w" horiz-adv-x="1310" d="M27 870q25 18 64.5 34t62.5 16q27 0 36 -37q49 -147 102.5 -315.5t115.5 -377.5q31 100 57.5 185.5t50 162t47 151.5t49.5 157q-4 10 -6 20.5t-4 20.5q8 4 21.5 9t30 10t31.5 8.5t28 3.5q16 0 26.5 -19.5t22.5 -60.5q31 -106 76 -265t106 -374q63 184 103 310t66 208 t38 128t20 75q25 -2 55.5 -8.5t53.5 -18.5q14 -9 14 -34q0 -29 -20 -81q-33 -92 -63.5 -176t-61.5 -170t-63.5 -177t-71.5 -196q-10 -31 -21.5 -45t-31.5 -22q-20 -6 -46 -10.5t-49 -6.5q-31 106 -53 190.5t-43.5 161t-45.5 157.5t-52 182q-10 -33 -25.5 -83.5t-34 -109.5 t-40 -122.5t-40 -122t-34 -105.5t-25.5 -74q-14 -45 -45 -55q-43 -14 -96 -19l-35 107.5t-45.5 139.5t-51 156t-53.5 159q-47 135 -75.5 214.5t-44.5 118.5z" />
<glyph unicode="x" horiz-adv-x="837" d="M14 20q29 39 67 91.5t80 111t87 119.5t88 123q-29 43 -70 101.5t-83 116.5t-76.5 106.5t-51.5 70.5l2 23q8 4 24.5 10t35 12t37 10.5t32.5 4.5h2q12 0 25.5 -14.5t34.5 -43.5q33 -49 84 -121.5t106 -150.5q33 47 60.5 85t51 71.5t45 65.5t44.5 65q16 23 26.5 33t22.5 10 q16 0 54 -8.5t63 -18.5v-23q-76 -96 -147.5 -192t-145.5 -201q70 -109 156 -229.5t157 -224.5v-19q-23 -8 -59.5 -12t-77.5 -4q-31 0 -47 26q-16 25 -42 62t-55.5 83t-63.5 95t-64 98q-23 -33 -45.5 -65.5t-49 -71.5t-61.5 -88t-80 -115q-15 -24 -45 -24h-2q-27 0 -58.5 3 t-54.5 9z" />
<glyph unicode="y" horiz-adv-x="829" d="M27 872q25 18 63.5 33t63.5 15h2q16 0 24 -9.5t19 -25.5q8 -20 26.5 -66.5t42 -109t50 -134t52 -140t47 -128t36.5 -98.5q31 72 64.5 168t64 195.5t56.5 191.5t38 156q53 0 108 -17q28 -10 28 -43q0 -14 -5 -31q-10 -41 -39 -134t-71 -211.5t-96 -251t-118 -250.5 q-68 -127 -124 -208t-100 -128t-74.5 -65.5t-47.5 -18.5q-33 0 -62.5 16t-45.5 33v14q80 53 169 168t160 260q-10 14 -17 35t-17 45q-8 20 -26.5 69.5t-43.5 114t-54.5 141.5t-60 151.5t-59.5 143t-53 119.5z" />
<glyph unicode="z" horiz-adv-x="755" d="M27 55q27 35 84 119t125.5 188.5t137 216t120.5 201.5h-320q-74 0 -102.5 11.5t-18.5 39.5q10 29 24.5 50.5t24.5 27.5q8 -6 20.5 -8t33 -4t51.5 -2h78h411q-2 -20 -4 -34.5t-5 -27t-8 -26.5t-13 -33q-12 -29 -52.5 -95.5t-97.5 -156.5t-124.5 -195.5t-137.5 -211.5 q49 -5 127 -7q49 -2 97 -1q30 1 58 1q76 2 139.5 3.5t84.5 5.5q-8 -29 -23.5 -57.5t-34.5 -41.5q-23 -16 -81 -20t-183 -4h-98t-105.5 2t-99.5 5t-80 9z" />
<glyph unicode="{" horiz-adv-x="606" d="M80 592q57 10 93 28.5t56.5 42t26.5 53t6 62.5q0 39 -5 85t-11 93q-8 47 -13.5 92.5t-5.5 84.5q0 66 21.5 129t89.5 112q35 27 83 42.5t89 17.5q12 -18 12 -64q0 -12 -6 -18t-22 -13q-78 -31 -111 -79t-33 -130q0 -37 6 -77.5t15 -81.5q6 -43 12 -87t6 -87 q0 -96 -37 -148.5t-98 -81.5q47 -20 73.5 -46.5t41 -59.5t17.5 -71t3 -77q0 -53 -6 -105t-14 -99q-10 -47 -16.5 -92.5t-6.5 -88.5q0 -70 31 -120t117 -74q29 -8 28 -25q0 -18 -6 -39.5t-12 -31.5q-127 4 -205 73.5t-78 212.5q0 43 6 95.5t15 107.5q8 53 14 106.5t6 96.5 q0 90 -32.5 134t-125.5 52q-10 2 -19 25.5t-5 50.5z" />
<glyph unicode="|" horiz-adv-x="540" d="M205 -512v2048h131v-2048h-131z" />
<glyph unicode="}" horiz-adv-x="606" d="M86 -299q0 12 6 18.5t19 10.5q78 33 111.5 81t33.5 130q0 37 -5 79.5t-13 90.5q-6 47 -12.5 93t-6.5 93q0 104 38 157.5t97 82.5q-45 20 -71.5 46.5t-41 59.5t-18.5 69t-4 74q0 47 6 91.5t15 91.5q8 47 14 91t6 89q0 70 -30.5 117t-116.5 71q-27 8 -27 25q0 18 6 39.5 t12 32.5q125 -4 203 -74t78 -213q0 -43 -6 -94.5t-14 -102.5t-14.5 -98t-6.5 -82q0 -86 33 -130t125 -50q12 -2 20 -25.5t4 -50.5q-59 -10 -94 -28.5t-55.5 -43t-26.5 -54.5t-6 -62q0 -37 5 -85t13 -102q6 -53 11.5 -104t5.5 -96q0 -66 -20.5 -129.5t-86.5 -110.5 q-39 -29 -86 -44t-88 -17q-12 18 -12 63z" />
<glyph unicode="~" horiz-adv-x="1120" d="M117 362q12 121 42.5 192t68.5 106.5t76 45t67 9.5h2q59 0 106 -28t113 -91q51 -53 95 -96t91 -43q49 0 79 47t44 174q4 18 10.5 23.5t16.5 5.5q23 0 44 -9.5t32 -21.5q-4 -98 -25 -164t-52.5 -103.5t-70.5 -54t-82 -16.5q-72 0 -128 47t-122 115q-51 53 -87 76.5 t-68 23.5q-49 0 -84 -49t-56 -168q-6 -41 -43 -41q-25 0 -40 6t-29 14z" />
<glyph unicode="&#xa1;" horiz-adv-x="354" d="M78 -295q0 25 2 83t6 134t9 160t9.5 156.5t7.5 125t5 68.5q2 29 11 38t19 15q23 10 45.5 16.5t28.5 6.5q0 -20 3 -77.5t7.5 -135.5t8.5 -166t8 -171t6 -150.5t4 -104.5q-4 -10 -20.5 -19.5t-39 -15.5t-45 -10t-36.5 -4q-18 0 -28.5 10t-10.5 41zM80 811q0 47 27.5 78 t74.5 31q35 0 66 -26t31 -79q0 -45 -26 -75.5t-79 -30.5h-4q-41 0 -65.5 31.5t-24.5 70.5z" />
<glyph unicode="&#xa2;" d="M123 602q0 117 40 193.5t97 126t117.5 74t103.5 34.5l11 100q4 25 19 36.5t58 15.5h54l-19 -148q68 -6 117 -26.5t72 -44.5q0 -29 -25 -60q-12 -16 -27.5 -22.5t-38.5 4.5q-29 14 -60.5 23.5t-72.5 9.5q-80 0 -133 -30t-85 -75t-44 -95t-12 -91q0 -80 24.5 -137.5 t64.5 -92.5t91 -51t105 -16q104 0 198 41q-18 -106 -59 -129q-23 -10 -64 -21.5t-106 -11.5l-14 -129q-4 -27 -14.5 -39t-39.5 -14l-82 -7l25 199q-35 8 -86 28.5t-98 63.5t-82 113t-35 178z" />
<glyph unicode="&#xa3;" d="M49 27l2 26q49 49 81 112.5t48.5 131.5t22.5 135.5t6 122.5q-53 0 -78 6t-35 21q16 31 42 49t79 35q10 287 101.5 427t277.5 140q66 0 109 -19.5t65 -39.5q0 -16 -6 -36t-14 -34q-10 -16 -22.5 -18.5t-31.5 6.5q-20 8 -44.5 15t-59.5 7q-68 0 -108 -39t-62.5 -101.5 t-30.5 -143t-10 -162.5q31 0 85 -1t110.5 -1t104.5 1t67 5q-10 -61 -38 -85t-53 -28q-20 -4 -85.5 -4h-200.5q-4 -162 -38 -266.5t-93 -179.5q31 -12 75.5 -24.5t95 -21t100.5 -14.5t93 -6q53 0 124 6t122 25l4 -4q-8 -41 -23.5 -68t-37.5 -45q-31 -18 -80 -27.5t-123 -9.5 q-127 0 -268.5 31t-272.5 76z" />
<glyph unicode="&#xa4;" d="M51 199q20 23 50 62.5t57 78.5q-53 53 -76 121.5t-23 138.5q0 78 28 137.5t67 106.5q-16 23 -33 39t-41 45q-29 39 -8 71q27 55 59 45q16 -18 49 -56t68 -73q35 23 92 41.5t113 18.5h2q55 0 108 -15.5t88 -44.5q29 33 59.5 67t55.5 69q29 -23 43 -47.5t14 -38.5 q0 -23 -28.5 -57t-67.5 -77q33 -43 48.5 -97t15.5 -111q0 -70 -23 -139.5t-66 -112.5q47 -53 83 -90t46 -58q-6 -27 -31.5 -53.5t-41.5 -26.5q-10 0 -47 42t-99 112q-51 -35 -102 -46t-98 -11q-41 0 -82 8t-76 26q-10 -16 -30.5 -42.5t-45.5 -59.5q-39 -49 -76 -31 q-20 10 -33.5 25.5t-17.5 32.5zM190 612q0 -121 62.5 -193.5t173.5 -72.5q117 0 175 76t58 192q0 117 -64.5 185.5t-166.5 68.5h-4q-53 0 -96 -21.5t-74 -56t-47.5 -80.5t-16.5 -98z" />
<glyph unicode="&#xa5;" d="M25 1180l4 16q41 8 79.5 12t59.5 4q20 0 35 -20q12 -20 39.5 -68.5t63.5 -109t74 -126t71 -118.5q39 63 78.5 130t75.5 127t65.5 108.5t48.5 74.5q29 4 61.5 2t59.5 -8q33 -8 18 -33q-20 -31 -55 -82t-78 -113.5t-90 -134t-92 -141.5h268q-2 -29 -20.5 -61.5t-47.5 -32.5 h-227v-188h266q0 -12 -2 -27.5t-8 -30t-18.5 -24.5t-32.5 -10h-205v-326q-23 -6 -56.5 -10t-66.5 -4q-16 0 -25.5 6t-9.5 31v303h-282q0 18 7 52t11 40h264v188h-292q0 18 7 53t17 41h246q-29 47 -75 119t-93 143.5t-87 132t-56 85.5z" />
<glyph unicode="&#xa6;" horiz-adv-x="540" d="M205 -358v716h131v-716h-131zM205 666v716h131v-716h-131z" />
<glyph unicode="&#xa7;" horiz-adv-x="884" d="M63 793v2q0 80 23 134t49 87q18 23 40 35t38 16q10 2 13 -3t-1 -13q-18 -35 -33.5 -81t-15.5 -110q-2 -78 36 -156.5t107 -168.5q59 -76 127 -158t109 -139q41 -59 55.5 -108.5t14.5 -90.5q0 -53 -15.5 -90t-38 -63.5t-46 -43t-42.5 -24.5q-37 -18 -80 -26.5t-79 -8.5 q-41 0 -78 9t-49 20q-16 10 -26.5 39.5t-0.5 76.5q29 -16 73 -25t87 -9q66 0 115 32.5t49 93.5q0 39 -17.5 80t-58.5 88q-16 20 -50 59.5t-71 85.5t-74 94t-59 87q-47 72 -74 135.5t-27 143.5zM262 1073q0 57 25.5 103.5t68.5 80.5q72 53 170 54h2q41 0 74 -9.5t49 -21.5 q20 -14 21 -37q0 -23 -6.5 -42t-16.5 -32q-59 33 -125 33t-102.5 -36t-36.5 -89q0 -29 17.5 -66.5t74.5 -105.5q49 -55 101.5 -115.5t109.5 -136.5q59 -78 87 -152.5t28 -162.5q0 -66 -15.5 -111t-29.5 -67q-12 -18 -37 -34.5t-41 -21.5q-8 -4 -10 1.5t-2 9.5q10 25 18 63.5 t8 89.5q0 59 -17.5 113.5t-47.5 103.5q-41 66 -105.5 149t-150.5 183q-68 82 -89.5 139.5t-21.5 116.5z" />
<glyph unicode="&#xa8;" horiz-adv-x="819" d="M172 1186q0 39 23.5 64.5t66.5 25.5h2q37 0 57.5 -27.5t20.5 -56.5q0 -43 -23.5 -67.5t-62.5 -24.5q-31 0 -57.5 20.5t-26.5 65.5zM479 1186q0 39 21.5 64.5t66.5 25.5h2q39 0 58.5 -27.5t19.5 -56.5q0 -43 -23.5 -67.5t-64.5 -24.5q-29 0 -54.5 20.5t-25.5 65.5z" />
<glyph unicode="&#xa9;" horiz-adv-x="1374" d="M72 647q0 143 48 262t131 204t196.5 131t242.5 46h2q127 0 237.5 -46t193.5 -131t131.5 -203.5t48.5 -262.5q0 -145 -48.5 -263t-131.5 -203t-194.5 -131t-238.5 -46q-129 0 -242.5 46t-196.5 131t-131 203t-48 263zM176 647q0 -117 37 -218t105.5 -178t164 -121 t211.5 -44q113 0 206 44t158.5 120t102.5 178t37 221q0 117 -37 219.5t-102.5 177t-158.5 118.5t-206 44h-2q-115 0 -210 -44t-163.5 -119.5t-105.5 -178t-37 -219.5zM387 643q0 76 26.5 138.5t74 107.5t113 70.5t144.5 25.5q72 0 118 -17.5t63 -33.5q0 -14 -5.5 -30.5 t-11.5 -24.5q-8 -12 -18 -11.5t-25 4.5q-18 8 -52 16.5t-81 8.5q-39 0 -80 -14.5t-73.5 -43t-54 -74.5t-21.5 -110q0 -117 65.5 -184.5t194.5 -67.5q41 0 81 9.5t60 17.5l15 -18q-6 -39 -37 -70q-14 -8 -47 -19.5t-107 -11.5q-78 0 -141.5 24.5t-107.5 67.5t-68.5 104.5 t-24.5 135.5z" />
<glyph unicode="&#xaa;" horiz-adv-x="624" d="M55 711q0 55 31 91t73 59.5t87 36.5t73 20q23 4 38.5 7t31.5 5v31q0 55 -26.5 85.5t-79.5 30.5q-41 0 -78 -19.5t-64 -39.5q-39 -25 -57 26l-12 25q12 14 37.5 32.5t57.5 34t68.5 25.5t73.5 10q111 0 158 -59t47 -147q0 -23 -1 -58t-1 -71.5t-1 -71.5t-1 -55 q6 -49 41 -50q23 0 45 7l-2 -58q-12 -12 -33.5 -25.5t-60.5 -15.5q-41 0 -69 20.5t-38 55.5q-27 -29 -67.5 -53.5t-102.5 -26.5q-78 0 -123 42t-45 106zM184 727q0 -33 22.5 -52.5t55.5 -19.5q35 0 69 21.5t46 50.5q4 10 7 21.5t3 29.5v74q-31 -4 -66.5 -12.5t-65.5 -22.5 t-50.5 -35.5t-20.5 -52.5v-2z" />
<glyph unicode="&#xab;" horiz-adv-x="892" d="M94 483q78 76 153 169t136 194q16 -8 34.5 -29.5t18.5 -44.5q0 -18 -24.5 -61t-56 -91.5t-63.5 -92.5t-44 -62q12 -18 41.5 -61.5t58.5 -91.5t51.5 -92t22.5 -66q2 -27 -17.5 -47.5t-39.5 -24.5q-53 94 -120 187t-139 167q-12 20 -12 47zM440 483q78 80 157 179.5 t146 209.5q16 -10 35 -33.5t21 -52.5q0 -18 -28 -65t-62.5 -98.5t-68.5 -96.5t-46 -61q12 -16 45 -63.5t65.5 -100.5t58 -100t25.5 -66q0 -25 -21.5 -46t-41.5 -32q-57 104 -126 199.5t-142 177.5q-16 23 -17 49z" />
<glyph unicode="&#xac;" horiz-adv-x="1120" d="M123 629q2 53 15.5 78.5t47.5 25.5h791l18 -20v-475q0 -23 -14 -37.5t-66 -18.5l-36 -4v451h-756z" />
<glyph unicode="&#xad;" horiz-adv-x="581" d="M61 391q14 53 32 85t34 34q43 6 96 15.5t106.5 18.5t100.5 19t78 19l12 -29q-4 -12 -13 -30.5t-23.5 -37t-33 -33t-40.5 -20.5q-29 -10 -71 -19.5t-88 -16.5t-91 -13t-80 -6z" />
<glyph unicode="&#xae;" horiz-adv-x="598" d="M59 1061q0 104 63.5 177t174.5 73h2q55 0 99 -19.5t75 -53.5t48.5 -80t17.5 -97t-17.5 -96t-48.5 -79t-76 -53.5t-100 -19.5t-99 19.5t-75 53.5t-47.5 79t-16.5 96zM121 1063q0 -88 49 -144.5t129 -56.5q78 0 128 56.5t50 144.5q0 86 -49 141.5t-129 55.5h-4 q-78 0 -126 -55.5t-48 -141.5zM209 938v246q16 2 37.5 5t44.5 3q49 0 76.5 -18.5t27.5 -57.5q0 -25 -15 -41t-34 -24q10 -16 31.5 -49t38.5 -50v-12q-20 -4 -37 -4q-23 0 -33 14q-8 10 -20.5 28.5t-22.5 39.5q-12 20 -41 18v-98h-53zM262 1071h24.5t22.5 4q29 10 29 39 q0 39 -45 39q-18 0 -31 -4v-78z" />
<glyph unicode="&#xaf;" horiz-adv-x="819" d="M205 1139q0 27 10 54.5t18 33.5h361q23 0 22 -19q0 -18 -12 -50t-22 -44h-355q-23 0 -22 25z" />
<glyph unicode="&#xb0;" horiz-adv-x="546" d="M57 1010q0 45 15.5 85t44 70.5t68.5 49t89 18.5h2q53 0 93.5 -19.5t66 -50t38.5 -69.5t13 -78q0 -98 -60 -158.5t-165 -60.5q-35 0 -71.5 13t-66.5 40t-48.5 66.5t-18.5 93.5zM166 1014q0 -63 32.5 -96t75.5 -33q61 0 85 38t24 89q0 49 -27.5 91t-81.5 42h-2 q-51 0 -78.5 -39t-27.5 -92z" />
<glyph unicode="&#xb1;" horiz-adv-x="1120" d="M125 598q2 47 14.5 75.5t46.5 28.5h316v207q0 78 -6 127l73 11q35 4 42 -13.5t7 -52.5v-279h377q-2 -47 -13 -75.5t-50 -28.5h-314v-328q0 -23 -13 -38t-54 -19l-49 -4v389h-377zM127 0q2 49 14.5 76.5t44.5 27.5h811q-2 -45 -13 -74.5t-50 -29.5h-807z" />
<glyph unicode="&#xb2;" horiz-adv-x="575" d="M39 608l37 58q45 41 94 84t88 87t64.5 88t25.5 85q0 59 -32.5 89.5t-86.5 30.5q-41 0 -82 -23.5t-73 -53.5l-23 16l19 76q33 35 86 61.5t116 26.5q98 0 156.5 -54.5t58.5 -152.5q0 -55 -26.5 -100t-57.5 -80q-27 -29 -69.5 -69t-114.5 -103q68 -4 142.5 -3t173.5 7 q-4 -25 -18.5 -50.5t-41.5 -41.5q-29 -8 -65.5 -11.5t-102.5 -3.5q-74 0 -143.5 1t-116.5 12z" />
<glyph unicode="&#xb3;" horiz-adv-x="575" d="M59 610l15 19q18 -6 48 -11.5t60 -5.5q92 0 142.5 40t50.5 93q0 61 -42 89t-104 28q-33 0 -73 -8l-11 14q10 25 33 60q27 6 53.5 14t49 22.5t37 35t14.5 49.5q0 45 -28 66.5t-66 21.5q-33 0 -67 -17.5t-60 -42.5q-8 10 -16.5 26.5t-8.5 26.5q0 16 23 39q20 18 65 41 t98 23h2q53 0 88 -16.5t56.5 -41t30 -52t8.5 -52.5q0 -27 -6.5 -44t-16.5 -34q-23 -31 -69 -67q68 -16 105.5 -63.5t37.5 -117.5q0 -53 -25.5 -94t-66.5 -69.5t-94.5 -44t-110.5 -15.5q-55 0 -83 8.5t-40 18.5q-10 10 -17.5 24.5t-11.5 36.5z" />
<glyph unicode="&#xb4;" horiz-adv-x="819" d="M344 1078.5q0 11.5 10 33.5q12 29 34 74t45.5 87t44 71.5t32.5 29.5q23 2 51.5 -12t44.5 -31q18 -14 -4 -39q-57 -63 -110.5 -135t-92.5 -127q-16 4 -27.5 12.5t-21.5 18.5q-6 6 -6 17.5z" />
<glyph unicode="&#xb6;" horiz-adv-x="970" d="M88 -8q0 16 16.5 43.5t22.5 36.5q53 -45 108.5 -64.5t110.5 -19.5q258 0 258 426v80l-119 -33q-37 -12 -69 -12q-68 0 -125.5 27.5t-99 76.5t-66.5 114.5t-25 143.5q0 94 32 171t88 129t132 81t166 29h191h196l4 -27l-59 -74l-117 -10v-606q0 -113 -7 -196t-22.5 -145.5 t-42 -106.5t-63.5 -81q-47 -47 -112.5 -72.5t-147.5 -25.5q-55 0 -101.5 11.5t-79 28.5t-51 37.5t-18.5 37.5z" />
<glyph unicode="&#xb7;" horiz-adv-x="311" d="M55 483q0 47 27 79t80 32h4q43 0 66.5 -33t23.5 -72q0 -49 -27.5 -79.5t-74.5 -30.5q-35 0 -67 25.5t-32 78.5z" />
<glyph unicode="&#xb8;" horiz-adv-x="819" d="M279 -379q0 4 3 10.5t15 10.5q82 23 111.5 49t29.5 49q0 41 -48 59.5t-103 16.5v20l121 172h104l-76 -110q61 -16 93 -55.5t32 -88.5q0 -41 -22.5 -73.5t-57.5 -57t-77 -40t-82 -19.5q-18 4 -30.5 24.5t-12.5 32.5z" />
<glyph unicode="&#xb9;" horiz-adv-x="575" d="M100 1079l31 60q33 8 71 20t73.5 25.5t66.5 26t47 22.5l19 -8q0 -16 -2.5 -89t-4.5 -166t-2 -193.5v-172.5q0 -18 -8 -25.5t-35 -9.5l-86 -6q2 10 3 66.5t2 134.5t2.5 166t1.5 162q-14 -4 -37 -9.5t-47.5 -9.5t-47 -7t-34.5 -3z" />
<glyph unicode="&#xba;" horiz-adv-x="696" d="M41 856q0 150 111 242q35 29 87 51t117 22h2q76 0 131.5 -24.5t92 -65.5t55 -95t18.5 -114q0 -76 -26.5 -133t-63.5 -92q-39 -35 -96 -59.5t-127 -24.5q-78 0 -134 26.5t-93 69.5t-55.5 95.5t-18.5 101.5zM180 870q0 -57 15.5 -97t39 -65.5t53 -37t58.5 -11.5 q66 0 119 50.5t53 160.5q0 98 -51 151.5t-123 53.5h-2q-66 0 -114 -56t-48 -149z" />
<glyph unicode="&#xbb;" horiz-adv-x="892" d="M94 139q0 20 28 66.5t62.5 98.5t69.5 97.5t47 61.5q-12 16 -45 63t-65.5 101.5t-58.5 101.5t-26 66q0 25 20.5 47t41.5 30q59 -104 128 -200.5t144 -175.5q14 -25 15 -52q-78 -78 -157 -178t-146 -211q-16 10 -36 33t-22 51zM455 156q0 18 24.5 62t57 92t64.5 91.5 t44 61.5q-12 20 -42 63t-59.5 91.5t-52 92.5t-22.5 66q0 27 19.5 47.5t37.5 24.5q55 -94 122 -187.5t138 -166.5q12 -23 13 -50q-78 -74 -153 -168t-136 -194q-16 8 -35.5 30.5t-19.5 43.5z" />
<glyph unicode="&#xbc;" horiz-adv-x="1349" d="M119 1079l31 60q31 8 68.5 20t74.5 25.5t67.5 26t47.5 22.5l16 -8q0 -16 -2 -89t-3 -166t-1 -193.5v-172.5q0 -18 -8.5 -25.5t-34.5 -9.5l-86 -6q0 10 1 66.5t2 134.5t2 166t1 162q-14 -4 -36.5 -9.5t-47.5 -9.5t-47.5 -7t-34.5 -3zM233 -4q76 127 174.5 288.5t201 334 t203.5 342t187 311.5q14 27 43 -2q29 -22 37 -51q-133 -217 -327.5 -546t-436.5 -720q-12 -23 -22 -24t-21 10q-16 12 -25 27.5t-14 29.5zM686 231q31 47 71 105.5t82 114t80.5 102.5t65.5 76q18 16 61.5 34.5t79.5 26.5l35 -16q-92 -92 -180 -199.5t-166 -226.5 q37 -4 80 -6t113 -2l4 145q12 10 41.5 22.5t46.5 16.5h28v-182q16 2 42 3t49 5l8 -19l-43 -57q-16 -6 -31.5 -10t-24.5 -6v-152q-47 -8 -73.5 -13t-42.5 -7l-13 12q4 33 6.5 77t2.5 81q-92 0 -170 2t-117 12q-4 2 -10 10t-11.5 18.5t-9.5 19.5t-4 13z" />
<glyph unicode="&#xbd;" horiz-adv-x="1349" d="M96 1079l29 60q33 8 70.5 20t73.5 25.5t67 26t49 22.5l16 -8q0 -16 -2 -89t-4 -166t-2 -193.5v-172.5q0 -18 -8 -25.5t-33 -9.5l-86 -6q0 10 1 66.5t2 134.5t2 166t1 162q-14 -4 -36.5 -9.5t-47 -9.5t-47 -7t-35.5 -3zM197 -4q76 127 173 288.5t200.5 334t205 342 t187.5 311.5q14 27 43 -2q12 -10 22 -22.5t14 -28.5q-133 -217 -327.5 -546t-435.5 -720q-14 -23 -23.5 -24t-19.5 10q-16 12 -25.5 27.5t-13.5 29.5zM764 31l37 57q47 41 95 84t88 87t64.5 88t24.5 85q0 59 -32.5 90t-86.5 31q-41 0 -82 -23.5t-73 -54.5l-23 17l19 75 q35 35 87 61.5t115 26.5q98 0 156.5 -54t58.5 -152q0 -55 -26.5 -100.5t-55.5 -80.5q-29 -29 -70.5 -68.5t-115.5 -103.5q68 -4 142.5 -3t173.5 7q-4 -25 -18.5 -50t-41.5 -42q-29 -8 -64.5 -11t-103.5 -3q-74 0 -143.5 1t-116.5 11z" />
<glyph unicode="&#xbe;" horiz-adv-x="1349" d="M100 610l17 19q16 -6 46 -11.5t62 -5.5q92 0 141.5 40t49.5 93q0 61 -41 89t-103 28q-14 0 -33.5 -2t-41.5 -6l-11 14q6 10 14.5 26.5t20.5 33.5q25 6 52.5 14t50 22.5t37 35t14.5 49.5q0 45 -29 66.5t-67 21.5q-31 0 -66 -17.5t-61 -42.5q-8 10 -15.5 26.5t-7.5 26.5 q0 14 21 39q20 18 65 41t98 23h2q53 0 88 -16.5t56.5 -41t30 -52t8.5 -52.5q0 -27 -6.5 -44t-16.5 -34q-23 -31 -69 -67q68 -16 105.5 -63.5t37.5 -117.5q0 -53 -24.5 -94t-66.5 -69.5t-95.5 -44t-108.5 -15.5q-57 0 -85 8.5t-40 18.5q-8 10 -16.5 24.5t-12.5 36.5zM281 -4 q76 125 173 287.5t200.5 335t205 342t184.5 311.5q16 25 46 -2q24 -18 36 -51q-133 -217 -327.5 -546t-438.5 -720q-12 -23 -22 -24t-21 10q-16 12 -24 27.5t-12 29.5zM713 231q31 47 70.5 105.5t81.5 114t81 102.5t68 76q16 16 59 34.5t80 26.5l35 -16q-92 -92 -180 -199.5 t-166 -226.5q37 -4 80 -6t112 -2l4 145q12 10 42 22.5t46 16.5h29v-182q18 2 43 3t49 5l6 -19l-41 -57q-16 -6 -32.5 -10t-24.5 -6v-152q-47 -8 -73.5 -13t-43.5 -7l-12 12q4 33 6 77t2 81q-92 0 -170 2t-116 12q-4 2 -10.5 10t-11.5 18.5t-9 19.5t-4 13z" />
<glyph unicode="&#xbf;" horiz-adv-x="645" d="M70 -100q0 78 41 146.5t96 139.5q53 72 75.5 128.5t22.5 97.5q0 55 -16 92q8 10 27.5 17t33.5 7q29 0 62.5 -33.5t33.5 -105.5q0 -59 -22.5 -116.5t-69.5 -122.5q-16 -23 -36.5 -50.5t-39 -58.5t-32 -62.5t-13.5 -62.5q0 -55 31 -92t92 -37q47 0 90 17.5t68 35.5 q20 12 37.5 3t28.5 -48l6 -35q-61 -59 -133 -82.5t-125 -23.5h-2q-61 0 -109.5 19.5t-81.5 53t-49 78.5t-16 95zM244 811q0 47 27.5 78t74.5 31q33 0 64.5 -26t31.5 -79q0 -45 -27.5 -75.5t-78.5 -30.5h-2q-43 0 -66.5 32.5t-23.5 69.5z" />
<glyph unicode="&#xc0;" horiz-adv-x="1247" d="M29 12v17q29 63 76 163.5t101 219t110.5 242.5t105.5 233.5t87 193.5t54 123l-26 62q29 8 67.5 14t57.5 6q20 0 30 -9t17 -24q35 -82 82 -197.5t96 -236.5t94 -232.5t76 -180.5q61 -141 99 -235.5t65 -150.5v-10q-14 -6 -34 -10t-40.5 -7t-37.5 -4t-28 -1q-18 0 -29.5 12 t-27.5 51t-30.5 75t-31 76t-36 89t-47.5 115h-514q-59 -137 -104.5 -238.5t-74.5 -157.5q-10 -23 -41 -22q-20 0 -57 7t-59 17zM391 1534q10 29 36 55.5t48 26.5h2q12 0 46 -17.5t73 -42t79 -52t64 -50.5q14 -10 15.5 -21.5t-9.5 -27.5q-10 -14 -17 -21.5t-13 -15.5 q-29 14 -66 32.5t-78 38t-85 37t-85 31.5q-20 4 -10 27zM410 520h428q-86 219 -135.5 347t-69.5 175q-55 -125 -107.5 -246.5t-115.5 -275.5z" />
<glyph unicode="&#xc1;" horiz-adv-x="1247" d="M29 12v17q29 63 76 163.5t101 219t110.5 242.5t105.5 233.5t87 193.5t54 123l-26 62q29 8 67.5 14t57.5 6q20 0 30 -9t17 -24q35 -82 82 -197.5t96 -236.5t94 -232.5t76 -180.5q61 -141 99 -235.5t65 -150.5v-10q-14 -6 -34 -10t-40.5 -7t-37.5 -4t-28 -1q-18 0 -29.5 12 t-27.5 51t-30.5 75t-31 76t-36 89t-47.5 115h-514q-59 -137 -104.5 -238.5t-74.5 -157.5q-10 -23 -41 -22q-20 0 -57 7t-59 17zM410 520h428q-86 219 -135.5 347t-69.5 175q-55 -125 -107.5 -246.5t-115.5 -275.5zM499 1419.5q3 10.5 19 20.5q27 20 70 46.5t87 50.5t81 41 t55 17q27 -8 47.5 -38.5t26.5 -53.5q8 -25 -25 -33q-45 -14 -91 -29.5t-89 -30.5t-82 -29.5t-66 -24.5q-10 6 -16 16t-12 23q-8 14 -5 24.5z" />
<glyph unicode="&#xc2;" horiz-adv-x="1247" d="M29 12v17q29 63 76 163.5t101 219t110.5 242.5t105.5 233.5t87 193.5t54 123l-26 62q29 8 67.5 14t57.5 6q20 0 30 -9t17 -24q35 -82 82 -197.5t96 -236.5t94 -232.5t76 -180.5q61 -141 99 -235.5t65 -150.5v-10q-14 -6 -34 -10t-40.5 -7t-37.5 -4t-28 -1q-18 0 -29.5 12 t-27.5 51t-30.5 75t-31 76t-36 89t-47.5 115h-514q-59 -137 -104.5 -238.5t-74.5 -157.5q-10 -23 -41 -22q-20 0 -57 7t-59 17zM391 1399q104 78 193 184q14 14 30 21q14 4 26.5 5t23.5 1q49 -55 103 -107.5t114 -99.5q-8 -16 -32 -31.5t-42 -15.5q-25 0 -41 10 q-18 14 -53 44t-78 71q-33 -35 -65.5 -63.5t-61.5 -49.5q-8 -4 -17.5 -8t-19.5 -4h-2q-20 0 -44 14t-34 29zM410 520h428q-86 219 -135.5 347t-69.5 175q-55 -125 -107.5 -246.5t-115.5 -275.5z" />
<glyph unicode="&#xc3;" horiz-adv-x="1247" d="M29 12v17q29 63 76 163.5t101 219t110.5 242.5t105.5 233.5t87 193.5t54 123l-26 62q29 8 67.5 14t57.5 6q20 0 30 -9t17 -24q35 -82 82 -197.5t96 -236.5t94 -232.5t76 -180.5q61 -141 99 -235.5t65 -150.5v-10q-14 -6 -34 -10t-40.5 -7t-37.5 -4t-28 -1q-18 0 -29.5 12 t-27.5 51t-30.5 75t-31 76t-36 89t-47.5 115h-514q-59 -137 -104.5 -238.5t-74.5 -157.5q-10 -23 -41 -22q-20 0 -57 7t-59 17zM399 1393q4 35 13.5 71.5t27 66.5t44 49t67.5 19h2q31 0 58.5 -18t50.5 -49q16 -20 30.5 -34.5t24.5 -14.5q14 0 25.5 21.5t21.5 74.5 q6 20 20 20q12 0 33 -8t35 -20q-10 -98 -44 -150.5t-93 -52.5q-35 0 -59.5 22.5t-53.5 55.5q-18 23 -29.5 33t-27.5 10q-18 0 -31.5 -25.5t-24.5 -66.5q-4 -20 -16 -21q-16 0 -39.5 6.5t-34.5 10.5zM410 520h428q-86 219 -135.5 347t-69.5 175q-55 -125 -107.5 -246.5 t-115.5 -275.5z" />
<glyph unicode="&#xc4;" horiz-adv-x="1247" d="M29 12v17q29 63 76 163.5t101 219t110.5 242.5t105.5 233.5t87 193.5t54 123l-26 62q29 8 67.5 14t57.5 6q20 0 30 -9t17 -24q35 -82 82 -197.5t96 -236.5t94 -232.5t76 -180.5q61 -141 99 -235.5t65 -150.5v-10q-14 -6 -34 -10t-40.5 -7t-37.5 -4t-28 -1q-18 0 -29.5 12 t-27.5 51t-30.5 75t-31 76t-36 89t-47.5 115h-514q-59 -137 -104.5 -238.5t-74.5 -157.5q-10 -23 -41 -22q-20 0 -57 7t-59 17zM379 1450q0 39 24.5 65.5t67.5 26.5h2q39 0 59.5 -27.5t20.5 -58.5q0 -45 -23.5 -69.5t-64.5 -24.5q-33 0 -59.5 20.5t-26.5 67.5zM410 520h428 q-86 219 -135.5 347t-69.5 175q-55 -125 -107.5 -246.5t-115.5 -275.5zM696 1450q0 39 22.5 65.5t67.5 26.5h2q39 0 59.5 -27.5t20.5 -58.5q0 -45 -24.5 -69.5t-65.5 -24.5q-29 0 -55.5 20.5t-26.5 67.5z" />
<glyph unicode="&#xc5;" horiz-adv-x="1247" d="M29 12v17q29 63 76 163.5t101 219t110.5 242.5t105.5 233.5t87 193.5t54 123l-26 62q29 8 67.5 14t57.5 6q20 0 30 -9t17 -24q35 -82 82 -197.5t96 -236.5t94 -232.5t76 -180.5q61 -141 99 -235.5t65 -150.5v-10q-14 -6 -34 -10t-40.5 -7t-37.5 -4t-28 -1q-18 0 -29.5 12 t-27.5 51t-30.5 75t-31 76t-36 89t-47.5 115h-514q-59 -137 -104.5 -238.5t-74.5 -157.5q-10 -23 -41 -22q-20 0 -57 7t-59 17zM410 520h428q-86 219 -135.5 347t-69.5 175q-55 -125 -107.5 -246.5t-115.5 -275.5zM459 1520q0 72 46 122t132 50h2q39 0 69.5 -15.5t51 -39 t31 -53.5t10.5 -58q0 -76 -48 -123t-128 -47q-66 0 -116 43t-50 121zM555 1524q0 -39 22.5 -64.5t55.5 -23.5q39 0 57.5 26.5t18.5 59.5q0 31 -17.5 60.5t-62.5 29.5h-2q-35 0 -53.5 -29t-18.5 -59z" />
<glyph unicode="&#xc6;" horiz-adv-x="1579" d="M14 27q27 51 73 142t100.5 201.5t114.5 232.5t116.5 235.5t105.5 209t80 154.5q8 16 12.5 28.5t8.5 29.5q31 4 69.5 10t81.5 10h662q-2 -27 -15.5 -56.5t-25.5 -41.5q-8 -10 -34 -14.5t-69 -6.5h-374l41 -459h469q-12 -63 -36 -89.5t-69 -26.5h-356l45 -465 q47 -10 122.5 -13.5t151.5 -1.5q80 0 152.5 2.5t115.5 8.5l5 -4q-6 -41 -31 -72t-62 -45q-18 -4 -69 -6t-148 -2q-147 0 -237 6t-129 14l-31 41l-43 541h-354q-78 -156 -127 -258.5t-81 -168t-49.5 -100t-29.5 -55.5q-8 -14 -16.5 -23.5t-20.5 -9.5q-35 0 -64.5 11.5 t-50.5 21.5zM502 702h297l-39 465q-29 0 -49 -43q-37 -74 -67 -132t-53.5 -107t-45 -93t-43.5 -90z" />
<glyph unicode="&#xc7;" horiz-adv-x="1165" d="M68 633q0 63 11 129.5t36.5 132.5t66.5 128t101 116q104 94 225 133t262 39q74 0 134.5 -12.5t106.5 -29t77.5 -37t44.5 -34.5q-2 -23 -9.5 -44t-21.5 -34q-18 -18 -74 10q-47 27 -117.5 43.5t-150.5 16.5q-102 0 -195.5 -36t-164 -105.5t-112.5 -172t-42 -233.5 q0 -119 35.5 -219t105.5 -174t172.5 -116t237.5 -42q43 0 88 5t86 14.5t74.5 19.5t52.5 21l16 -11q-12 -68 -61 -110q-31 -23 -97.5 -40.5t-162.5 -19.5l-52 -73q61 -16 93 -55.5t32 -88.5q0 -41 -22.5 -73.5t-57 -57t-76.5 -40t-83 -19.5q-18 4 -30.5 24.5t-12.5 32.5 q0 4 3 10.5t15 10.5q82 23 111.5 49t29.5 49q0 41 -48 59.5t-103 16.5v20l96 137q-152 10 -267.5 63.5t-194.5 140.5t-118.5 203t-39.5 253z" />
<glyph unicode="&#xc8;" horiz-adv-x="862" d="M137 1251q29 10 65 17.5t72 11.5h504q-6 -35 -20.5 -60.5t-32.5 -43.5q-18 -10 -50 -11.5t-100 -1.5h-268v-446h455q-10 -41 -21.5 -64.5t-27 -35t-35 -14.5t-43.5 -3h-328v-479q31 -10 99.5 -13.5t144.5 -3.5q70 0 148.5 2.5t136.5 8.5l4 -4q-12 -39 -36 -71t-56 -44 q-20 -4 -73.5 -6t-158.5 -2q-123 0 -215 5t-129 15l-31 41v944v135.5t-4 122.5zM219 1520q10 29 36 56.5t50 27.5h2q12 0 45 -17.5t72 -42t79 -53.5t64 -51q25 -18 8 -47q-10 -16 -18 -23.5t-14 -13.5q-29 14 -66 32.5t-78 38t-85 37t-85 31.5q-20 6 -10 25z" />
<glyph unicode="&#xc9;" horiz-adv-x="862" d="M137 1251q29 10 65 17.5t72 11.5h504q-6 -35 -20.5 -60.5t-32.5 -43.5q-18 -10 -50 -11.5t-100 -1.5h-268v-446h455q-10 -41 -21.5 -64.5t-27 -35t-35 -14.5t-43.5 -3h-328v-479q31 -10 99.5 -13.5t144.5 -3.5q70 0 148.5 2.5t136.5 8.5l4 -4q-12 -39 -36 -71t-56 -44 q-20 -4 -73.5 -6t-158.5 -2q-123 0 -215 5t-129 15l-31 41v944v135.5t-4 122.5zM346 1395q-14 27 12 45q27 20 70 46.5t87 50.5t82 41t56 17q27 -8 47.5 -38.5t26.5 -53.5q8 -27 -27 -33q-45 -14 -91 -29.5t-89 -30.5t-82 -29.5t-65 -24.5q-16 14 -27 39z" />
<glyph unicode="&#xca;" horiz-adv-x="862" d="M137 1251q29 10 65 17.5t72 11.5h504q-6 -35 -20.5 -60.5t-32.5 -43.5q-18 -10 -50 -11.5t-100 -1.5h-268v-446h455q-10 -41 -21.5 -64.5t-27 -35t-35 -14.5t-43.5 -3h-328v-479q31 -10 99.5 -13.5t144.5 -3.5q70 0 148.5 2.5t136.5 8.5l4 -4q-12 -39 -36 -71t-56 -44 q-20 -4 -73.5 -6t-158.5 -2q-123 0 -215 5t-129 15l-31 41v944v135.5t-4 122.5zM227 1399q104 78 193 184q14 14 31 21q14 4 26 5t23 1q49 -55 103 -107.5t114 -99.5q-8 -16 -31.5 -31.5t-42.5 -15.5q-25 0 -41 10q-18 14 -53 44t-78 71q-33 -35 -65.5 -63.5t-61.5 -49.5 q-8 -4 -17.5 -8t-19.5 -4h-2q-20 0 -43.5 14t-34.5 29z" />
<glyph unicode="&#xcb;" horiz-adv-x="862" d="M137 1251q29 10 65 17.5t72 11.5h504q-6 -35 -20.5 -60.5t-32.5 -43.5q-18 -10 -50 -11.5t-100 -1.5h-268v-446h455q-10 -41 -21.5 -64.5t-27 -35t-35 -14.5t-43.5 -3h-328v-479q31 -10 99.5 -13.5t144.5 -3.5q70 0 148.5 2.5t136.5 8.5l4 -4q-12 -39 -36 -71t-56 -44 q-20 -4 -73.5 -6t-158.5 -2q-123 0 -215 5t-129 15l-31 41v944v135.5t-4 122.5zM209 1462q0 41 23.5 67.5t66.5 26.5h2q39 0 59.5 -28.5t20.5 -59.5q0 -45 -23.5 -69.5t-64.5 -24.5q-33 0 -58.5 20.5t-25.5 67.5zM524 1462q0 41 22.5 67.5t67.5 26.5h2q39 0 59.5 -28.5 t20.5 -59.5q0 -45 -24.5 -69.5t-65.5 -24.5q-29 0 -55.5 20.5t-26.5 67.5z" />
<glyph unicode="&#xcc;" horiz-adv-x="448" d="M12 1520q10 29 36 56.5t48 27.5h2q12 0 46 -17.5t73 -42t79 -53.5t64 -51q25 -20 7 -47q-10 -16 -17.5 -23.5l-13.5 -13.5q-29 14 -66 32.5t-78.5 38t-85 37t-83.5 31.5q-23 6 -11 25zM135 1270q10 2 28.5 5t40 5t41 4t31.5 2q20 0 25.5 -18.5t5.5 -85.5v-928 q0 -106 2 -162.5t4 -87.5q-12 -4 -30.5 -7t-39 -5t-40 -3t-31.5 -1q-16 0 -23.5 7t-7.5 32v985q0 203 -6 258z" />
<glyph unicode="&#xcd;" horiz-adv-x="448" d="M84 1395q-14 27 12 45q27 20 70 46.5t87 50.5t82 41t56 17q27 -8 47.5 -38.5t26.5 -53.5q8 -27 -27 -33q-45 -14 -91 -29.5t-89 -30.5t-82 -29.5t-65 -24.5q-12 10 -27 39zM135 1270q10 2 28.5 5t40 5t41 4t31.5 2q20 0 25.5 -18.5t5.5 -85.5v-928q0 -106 2 -162.5 t4 -87.5q-12 -4 -30.5 -7t-39 -5t-40 -3t-31.5 -1q-16 0 -23.5 7t-7.5 32v985q0 203 -6 258z" />
<glyph unicode="&#xce;" horiz-adv-x="448" d="M-18 1399q53 41 100 86t90 98q14 14 31 21q14 4 26.5 5t22.5 1q49 -55 103.5 -107.5t113.5 -99.5q-8 -16 -31.5 -31.5t-40.5 -15.5q-27 0 -43 10q-18 14 -53 44t-78 71q-33 -35 -65.5 -63.5t-61.5 -49.5q-8 -4 -17 -8t-20 -4h-2q-18 0 -41.5 14t-33.5 29zM135 1270 q10 2 28.5 5t40 5t41 4t31.5 2q20 0 25.5 -18.5t5.5 -85.5v-928q0 -106 2 -162.5t4 -87.5q-12 -4 -30.5 -7t-39 -5t-40 -3t-31.5 -1q-16 0 -23.5 7t-7.5 32v985q0 203 -6 258z" />
<glyph unicode="&#xcf;" horiz-adv-x="448" d="M-20 1450q0 39 23.5 65.5t68.5 26.5h2q39 0 59.5 -27.5t20.5 -58.5q0 -45 -25 -69.5t-63 -24.5q-33 0 -59.5 20.5t-26.5 67.5zM135 1270q10 2 28.5 5t40 5t41 4t31.5 2q20 0 25.5 -18.5t5.5 -85.5v-928q0 -106 2 -162.5t4 -87.5q-12 -4 -30.5 -7t-39 -5t-40 -3t-31.5 -1 q-16 0 -23.5 7t-7.5 32v985q0 203 -6 258zM295 1450q0 39 22.5 65.5t67.5 26.5h2q41 0 60.5 -27.5t19.5 -58.5q0 -45 -23.5 -69.5t-64.5 -24.5q-29 0 -56.5 20.5t-27.5 67.5z" />
<glyph unicode="&#xd0;" horiz-adv-x="1329" d="M-10 602q10 72 36.5 93.5t59.5 21.5h82v295v87v62.5t-1 48t-3 45.5l141 21q47 4 102.5 9t114.5 5q158 0 274.5 -29.5t198.5 -80t134.5 -116t82 -135t41 -140t11.5 -132.5q0 -143 -47.5 -271t-176.5 -243q-63 -53 -133.5 -85.5t-138.5 -50t-127 -22.5t-100 -5 q-59 0 -105.5 3t-88.5 8t-84 14t-95 22v575h-178zM334 123q96 -29 213 -29q98 0 193.5 29t172 93.5t123.5 170t47 260.5q0 117 -34.5 214t-106.5 167t-179.5 109t-252.5 39q-37 0 -82 -3.5t-94 -11.5v-444h371q-18 -78 -51 -96.5t-85 -18.5h-235v-479z" />
<glyph unicode="&#xd1;" horiz-adv-x="1325" d="M104 1253v17q8 2 29 5t43.5 5t43 4t32.5 2q23 0 51 -35q25 -33 76 -100.5t116.5 -157.5t144.5 -196.5t159 -216.5q78 -111 142.5 -202t105.5 -175q-4 82 -6.5 148.5t-3.5 119.5t-1 97v83v568q0 35 8.5 45t28.5 14q20 2 34.5 4t26 3t21.5 1h25q-4 -66 -5 -157t-1 -220 v-905q-8 -8 -46 -19.5t-67 -11.5q-10 0 -19.5 6.5t-9.5 8.5q-53 70 -116.5 156.5t-131 179t-137 187.5t-135.5 185q-55 82 -110.5 169t-114.5 188q2 -96 4 -167t3 -125t1 -96v-81v-525q0 -39 -9.5 -49t-31.5 -14q-23 -4 -51.5 -6t-52.5 -2q4 61 5 152t1 220v826zM442 1374 q4 35 13.5 72t27 66.5t45 49t66.5 19.5h2q33 0 59.5 -18.5t51.5 -49.5q16 -20 29.5 -34.5t23.5 -14.5q14 0 25.5 21.5t21.5 75.5q6 20 20 20q12 0 33 -8t37 -21q-10 -98 -45 -150t-94 -52q-35 0 -59.5 22.5t-53.5 54.5q-18 23 -29.5 33t-27.5 10t-29.5 -25.5t-23.5 -66.5 q-4 -20 -17 -20q-16 0 -40.5 6t-35.5 10z" />
<glyph unicode="&#xd2;" horiz-adv-x="1433" d="M68 625q0 145 44 271t128 218t204.5 144.5t272.5 52.5h2q162 0 283.5 -57.5t202.5 -150.5t121 -212t40 -240q0 -135 -41 -258t-123 -217t-201.5 -150.5t-279.5 -56.5q-178 0 -302 63.5t-202 160t-113.5 212t-35.5 220.5zM248 641q0 -137 40 -240.5t106.5 -174 t153.5 -106.5t181 -36q96 0 180 35t145.5 104.5t97.5 173t36 242.5q0 145 -43 250.5t-110.5 173t-152.5 100.5t-169 33h-2q-96 0 -180.5 -36t-148 -105.5t-99 -174t-35.5 -239.5zM510 1540q10 29 35.5 56.5t48.5 27.5h2q12 0 46 -17.5t73 -42t79 -53t64 -51.5q25 -20 6 -47 q-10 -16 -17 -23.5t-13 -13.5q-29 14 -66 32.5t-79 38t-85 37t-84 32.5q-20 4 -10 24z" />
<glyph unicode="&#xd3;" horiz-adv-x="1433" d="M68 625q0 145 44 271t128 218t204.5 144.5t272.5 52.5h2q162 0 283.5 -57.5t202.5 -150.5t121 -212t40 -240q0 -135 -41 -258t-123 -217t-201.5 -150.5t-279.5 -56.5q-178 0 -302 63.5t-202 160t-113.5 212t-35.5 220.5zM248 641q0 -137 40 -240.5t106.5 -174 t153.5 -106.5t181 -36q96 0 180 35t145.5 104.5t97.5 173t36 242.5q0 145 -43 250.5t-110.5 173t-152.5 100.5t-169 33h-2q-96 0 -180.5 -36t-148 -105.5t-99 -174t-35.5 -239.5zM577 1439.5q3 10.5 19 20.5q27 20 70 46t87 50.5t81 41t55 18.5q27 -8 47 -39t27 -53 q8 -25 -25 -35q-92 -27 -182 -59.5t-146 -53.5q-10 6 -16 16.5t-12 20.5q-8 16 -5 26.5z" />
<glyph unicode="&#xd4;" horiz-adv-x="1433" d="M68 625q0 145 44 271t128 218t204.5 144.5t272.5 52.5h2q162 0 283.5 -57.5t202.5 -150.5t121 -212t40 -240q0 -135 -41 -258t-123 -217t-201.5 -150.5t-279.5 -56.5q-178 0 -302 63.5t-202 160t-113.5 212t-35.5 220.5zM248 641q0 -137 40 -240.5t106.5 -174 t153.5 -106.5t181 -36q96 0 180 35t145.5 104.5t97.5 173t36 242.5q0 145 -43 250.5t-110.5 173t-152.5 100.5t-169 33h-2q-96 0 -180.5 -36t-148 -105.5t-99 -174t-35.5 -239.5zM475 1415q104 78 193 184q6 6 12 11.5t16 9.5q16 4 28.5 5t23.5 1q94 -109 217 -207 q-10 -16 -33 -31.5t-41 -15.5q-23 0 -43 10q-18 14 -52 44t-79 71q-31 -35 -65 -63.5t-62 -49.5q-8 -4 -17.5 -8t-19.5 -4h-2q-18 0 -42 14.5t-34 28.5z" />
<glyph unicode="&#xd5;" horiz-adv-x="1433" d="M68 625q0 145 44 271t128 218t204.5 144.5t272.5 52.5h2q162 0 283.5 -57.5t202.5 -150.5t121 -212t40 -240q0 -135 -41 -258t-123 -217t-201.5 -150.5t-279.5 -56.5q-178 0 -302 63.5t-202 160t-113.5 212t-35.5 220.5zM248 641q0 -137 40 -240.5t106.5 -174 t153.5 -106.5t181 -36q96 0 180 35t145.5 104.5t97.5 173t36 242.5q0 145 -43 250.5t-110.5 173t-152.5 100.5t-169 33h-2q-96 0 -180.5 -36t-148 -105.5t-99 -174t-35.5 -239.5zM489 1395q4 35 13.5 71.5t27 66.5t45 49.5t66.5 19.5h2q33 0 59.5 -18.5t51.5 -47.5 q16 -23 29.5 -37t25.5 -14q14 0 25.5 21.5t21.5 74.5q6 20 21 21q12 0 31.5 -8.5t35.5 -20.5q-10 -98 -44 -150.5t-93 -52.5q-35 0 -60.5 22.5t-54.5 55.5q-18 23 -29.5 33t-27.5 10t-29.5 -25.5t-23.5 -66.5q-4 -20 -17 -21q-16 0 -40.5 6.5t-35.5 10.5z" />
<glyph unicode="&#xd6;" horiz-adv-x="1433" d="M68 625q0 145 44 271t128 218t204.5 144.5t272.5 52.5h2q162 0 283.5 -57.5t202.5 -150.5t121 -212t40 -240q0 -135 -41 -258t-123 -217t-201.5 -150.5t-279.5 -56.5q-178 0 -302 63.5t-202 160t-113.5 212t-35.5 220.5zM248 641q0 -137 40 -240.5t106.5 -174 t153.5 -106.5t181 -36q96 0 180 35t145.5 104.5t97.5 173t36 242.5q0 145 -43 250.5t-110.5 173t-152.5 100.5t-169 33h-2q-96 0 -180.5 -36t-148 -105.5t-99 -174t-35.5 -239.5zM473 1456q0 41 23.5 67.5t68.5 26.5h2q39 0 59.5 -28.5t20.5 -57.5q0 -45 -23.5 -69.5 t-64.5 -24.5q-33 0 -59.5 20.5t-26.5 65.5zM791 1456q0 41 22.5 67.5t67.5 26.5h2q39 0 59.5 -28.5t20.5 -57.5q0 -45 -25 -69.5t-66 -24.5q-29 0 -55 20.5t-26 65.5z" />
<glyph unicode="&#xd7;" horiz-adv-x="1120" d="M161 150.5q3 13.5 13 27.5l299 311l-307 316q-18 18 -2 53q8 14 23.5 29.5t33.5 21.5l332 -342l301 316q29 33 61 12q23 -14 35.5 -32.5t16.5 -24.5l-336 -349l307 -317q29 -29 6 -61q-27 -33 -65 -50l-330 351l-328 -351q-33 14 -53 56q-10 20 -7 33.5z" />
<glyph unicode="&#xd8;" horiz-adv-x="1433" d="M68 623q0 193 64.5 328.5t186.5 228.5q80 61 180.5 96t219.5 35q205 0 358 -103l97 127q23 27 35 31t24 -6q18 -16 27.5 -35.5t11.5 -32.5l-113 -147q109 -96 158 -228.5t49 -265.5t-38 -256t-118 -217t-201.5 -151.5t-287.5 -57.5q-115 0 -210 30t-165 83l-125 -164 q-29 -31 -49 -4q-12 16 -24.5 31.5t-16.5 29.5l133 175q-53 51 -91 110t-61.5 121.5t-33.5 124t-10 117.5zM240 635q0 -111 32.5 -203t85.5 -160l637 828q-117 96 -293 96q-92 0 -176 -38t-147.5 -109.5t-101 -176t-37.5 -237.5zM432 197q57 -53 132 -83t161 -30 q100 0 186 33t149.5 102.5t98.5 175t35 250.5q0 125 -34 219t-93 160z" />
<glyph unicode="&#xd9;" horiz-adv-x="1318" d="M131 1270q10 2 28.5 5t39 5t39 4t30.5 2q25 0 30 -17.5t5 -90.5v-562q0 -166 34 -268t87 -158.5t116.5 -76t125.5 -19.5q74 0 140 24.5t116.5 88t80 172t29.5 274.5v574q0 29 10.5 38t26.5 13q45 4 66.5 6t52.5 2q-6 -121 -6 -371v-266q0 -219 -48.5 -352t-125 -206 t-171 -97.5t-184.5 -24.5q-121 0 -216 34t-161.5 112t-102.5 203.5t-36 312.5v377q0 201 -6 262zM438 1503q10 29 35 56.5t49 27.5h2q12 0 46 -17.5t73 -42t79 -53t64 -51.5q25 -20 7 -47q-10 -16 -17.5 -23t-13.5 -14q-29 14 -66 33t-79 38.5t-85 36.5t-83 32q-23 6 -11 24 z" />
<glyph unicode="&#xda;" horiz-adv-x="1318" d="M131 1270q10 2 28.5 5t39 5t39 4t30.5 2q25 0 30 -17.5t5 -90.5v-562q0 -166 34 -268t87 -158.5t116.5 -76t125.5 -19.5q74 0 140 24.5t116.5 88t80 172t29.5 274.5v574q0 29 10.5 38t26.5 13q45 4 66.5 6t52.5 2q-6 -121 -6 -371v-266q0 -219 -48.5 -352t-125 -206 t-171 -97.5t-184.5 -24.5q-121 0 -216 34t-161.5 112t-102.5 203.5t-36 312.5v377q0 201 -6 262zM497 1419.5q3 10.5 19 20.5q27 20 70 46.5t87 50.5t82 41t56 17q25 -8 45.5 -38.5t26.5 -53.5q8 -25 -25 -33q-45 -14 -91 -29.5t-89 -30.5t-82 -29.5t-66 -24.5q-10 6 -16 16 t-12 23q-8 14 -5 24.5z" />
<glyph unicode="&#xdb;" horiz-adv-x="1318" d="M131 1270q10 2 28.5 5t39 5t39 4t30.5 2q25 0 30 -17.5t5 -90.5v-562q0 -166 34 -268t87 -158.5t116.5 -76t125.5 -19.5q74 0 140 24.5t116.5 88t80 172t29.5 274.5v574q0 29 10.5 38t26.5 13q45 4 66.5 6t52.5 2q-6 -121 -6 -371v-266q0 -219 -48.5 -352t-125 -206 t-171 -97.5t-184.5 -24.5q-121 0 -216 34t-161.5 112t-102.5 203.5t-36 312.5v377q0 201 -6 262zM412 1399q104 78 192 184q6 6 12.5 11t16.5 10q16 4 28.5 5t22.5 1q94 -109 217 -207q-8 -16 -31.5 -31.5t-42.5 -15.5q-23 0 -43 10q-18 14 -52 44t-79 71 q-31 -35 -64.5 -63.5t-62.5 -49.5q-8 -4 -17 -8t-20 -4h-2q-18 0 -41.5 14t-33.5 29z" />
<glyph unicode="&#xdc;" horiz-adv-x="1318" d="M131 1270q10 2 28.5 5t39 5t39 4t30.5 2q25 0 30 -17.5t5 -90.5v-562q0 -166 34 -268t87 -158.5t116.5 -76t125.5 -19.5q74 0 140 24.5t116.5 88t80 172t29.5 274.5v574q0 29 10.5 38t26.5 13q45 4 66.5 6t52.5 2q-6 -121 -6 -371v-266q0 -219 -48.5 -352t-125 -206 t-171 -97.5t-184.5 -24.5q-121 0 -216 34t-161.5 112t-102.5 203.5t-36 312.5v377q0 201 -6 262zM418 1450q0 39 24.5 65.5t67.5 26.5h2q39 0 59.5 -27.5t20.5 -58.5q0 -45 -23.5 -69.5t-64.5 -24.5q-33 0 -59.5 20.5t-26.5 67.5zM735 1450q0 39 22.5 65.5t67.5 26.5h2 q39 0 59.5 -27.5t20.5 -58.5q0 -45 -24.5 -69.5t-65.5 -24.5q-29 0 -55.5 20.5t-26.5 67.5z" />
<glyph unicode="&#xdd;" horiz-adv-x="1107" d="M33 1247v13q31 10 70.5 18t68.5 8q35 0 104 -104q27 -39 63 -89.5t74 -105.5t78.5 -114.5t79.5 -114.5q18 25 50 68.5t70 97t79 111t76 107.5t61.5 89t36.5 55q41 0 66.5 -5t46.5 -11q18 -6 22 -25.5t-18 -50.5q-14 -18 -47 -63.5t-75 -101.5t-88 -117.5t-87 -115 t-69.5 -92t-37.5 -49.5q-12 -16 -16 -37.5t-4 -42.5v-325q0 -104 2 -159.5t4 -86.5q-23 -8 -61.5 -12t-81.5 -4q-16 0 -22.5 7t-6.5 30v534q0 55 -14 86q-10 20 -46 74.5t-87 126.5q-31 43 -69 96t-77 107.5t-77 105.5t-68 92zM448 1402.5q3 10.5 19 20.5q27 20 70 47 t86 50.5t81 41t56 17.5q27 -8 47 -39t27 -53q8 -25 -25 -33q-92 -29 -182 -61.5t-148 -53.5q-12 10 -26 39q-8 14 -5 24.5z" />
<glyph unicode="&#xde;" horiz-adv-x="927" d="M135 1270q12 2 30.5 5t39 5t39 4t30.5 2q20 0 26.5 -20.5t6.5 -91.5v-152q23 4 52.5 7t74.5 3q100 0 187.5 -25.5t146.5 -86.5q61 -63 81.5 -136t20.5 -139q0 -115 -38.5 -191.5t-96 -122.5t-120 -64.5t-111.5 -18.5t-72 14q-23 12 -37 37t-18 55q14 -2 21.5 -3t12.5 -1 h9h16q25 0 69 9.5t85 39t71.5 86t30.5 150.5q0 143 -76.5 214t-199.5 69q-29 0 -57.5 -2.5t-51.5 -10.5v-649q0 -109 2 -165t4 -87q-20 -8 -62 -12t-71 -4q-20 0 -29.5 7t-9.5 30v985q0 201 -6 260z" />
<glyph unicode="&#xdf;" horiz-adv-x="1015" d="M35 823q16 18 41.5 33.5t66.5 32.5q2 49 11.5 103.5t28 106.5t46 100t64.5 85q59 61 131 91t156 30h2q80 0 140 -24.5t101 -66.5t61.5 -99.5t20.5 -122.5q0 -80 -28.5 -123t-51.5 -62q-72 -35 -125 -85t-53 -113q0 -31 13.5 -56.5t35.5 -44.5q31 -25 73 -58.5t83 -64.5 q113 -80 113 -211q0 -72 -29 -127t-77 -93t-113.5 -57.5t-139.5 -19.5q-59 0 -116.5 14.5t-92.5 41.5q0 53 27 82q12 14 26.5 14t30.5 -6q31 -12 66 -20.5t69 -8.5q80 0 133.5 43t53.5 107q0 47 -18.5 78.5t-67.5 66.5q-41 29 -74 52.5t-55 45.5q-37 37 -66.5 83t-29.5 112 t49 137.5t170 134.5q12 16 23 52t11 71q0 104 -50 160.5t-134 56.5q-113 0 -186.5 -112.5t-75.5 -354.5q0 -244 1 -440.5t7 -382.5q-27 -8 -72 -12t-67 -4q-29 0 -29 26q6 164 5 349.5t-1 402.5q-63 0 -85.5 17.5t-22.5 39.5z" />
<glyph unicode="&#xe0;" horiz-adv-x="837" d="M47 199q0 84 49 140t116 93t134.5 56.5t106.5 29.5q27 4 50 9t42 10v69q0 35 -9.5 68t-30 58.5t-51 40.5t-75.5 15q-53 0 -109.5 -28.5t-97.5 -59.5q-63 -43 -88 37l-10 35q20 23 56 49.5t82 48t97 36t105 14.5q78 0 131 -25t87 -69t49 -104t15 -130q0 -33 -1 -87 t-2 -114.5t-1 -122t2 -106.5q0 -68 66 -68q10 0 24.5 3t24.5 7v-69q-10 -20 -43 -40t-84 -20q-61 0 -95 39t-42 92q-18 -20 -46 -43.5t-63 -43t-76 -32t-84 -12.5q-104 0 -166.5 65.5t-62.5 158.5zM197 1294q-16 16 6 39q49 45 92 45q12 0 33.5 -30.5t45 -73.5t45 -89 t34.5 -79q12 -31 -9 -45q-16 -12 -25 -18.5t-20 -8.5q-35 53 -91 127t-111 133zM207 221q0 -53 30.5 -84t88.5 -31q31 0 61.5 11.5t57 28t49 36t34.5 37.5q6 10 10.5 24.5t4.5 43.5v149q-61 -10 -122 -27.5t-108 -43t-76.5 -61.5t-29.5 -81v-2z" />
<glyph unicode="&#xe1;" horiz-adv-x="837" d="M47 199q0 84 49 140t116 93t134.5 56.5t106.5 29.5q27 4 50 9t42 10v69q0 35 -9.5 68t-30 58.5t-51 40.5t-75.5 15q-53 0 -109.5 -28.5t-97.5 -59.5q-63 -43 -88 37l-10 35q20 23 56 49.5t82 48t97 36t105 14.5q78 0 131 -25t87 -69t49 -104t15 -130q0 -33 -1 -87 t-2 -114.5t-1 -122t2 -106.5q0 -68 66 -68q10 0 24.5 3t24.5 7v-69q-10 -20 -43 -40t-84 -20q-61 0 -95 39t-42 92q-18 -20 -46 -43.5t-63 -43t-76 -32t-84 -12.5q-104 0 -166.5 65.5t-62.5 158.5zM207 221q0 -53 30.5 -84t88.5 -31q31 0 61.5 11.5t57 28t49 36t34.5 37.5 q6 10 10.5 24.5t4.5 43.5v149q-61 -10 -122 -27.5t-108 -43t-76.5 -61.5t-29.5 -81v-2zM312 1077.5q1 12.5 12 34.5q12 29 32.5 74t44 87t44 71.5t32.5 29.5h2q23 0 51.5 -13t44.5 -30q10 -10 9.5 -17t-15.5 -22q-55 -66 -108 -136.5t-94 -127.5q-14 4 -25.5 12.5 t-22.5 18.5q-8 6 -7 18.5z" />
<glyph unicode="&#xe2;" horiz-adv-x="837" d="M47 199q0 84 49 140t116 93t134.5 56.5t106.5 29.5q27 4 50 9t42 10v69q0 35 -9.5 68t-30 58.5t-51 40.5t-75.5 15q-53 0 -109.5 -28.5t-97.5 -59.5q-63 -43 -88 37l-10 35q20 23 56 49.5t82 48t97 36t105 14.5q78 0 131 -25t87 -69t49 -104t15 -130q0 -33 -1 -87 t-2 -114.5t-1 -122t2 -106.5q0 -68 66 -68q10 0 24.5 3t24.5 7v-69q-10 -20 -43 -40t-84 -20q-61 0 -95 39t-42 92q-18 -20 -46 -43.5t-63 -43t-76 -32t-84 -12.5q-104 0 -166.5 65.5t-62.5 158.5zM186 1061q41 72 80 134t74 134q10 14 16 20.5t19 10.5q16 4 31.5 6t27.5 2 q41 -78 84 -152.5t88 -150.5q-12 -10 -34.5 -20.5t-45.5 -10.5q-18 0 -28 19q-20 39 -45 80t-58 100q-25 -47 -50.5 -90t-55.5 -96q-2 0 -9.5 -6.5t-15.5 -6.5q-16 0 -39.5 8.5t-38.5 18.5zM207 221q0 -53 30.5 -84t88.5 -31q31 0 61.5 11.5t57 28t49 36t34.5 37.5 q6 10 10.5 24.5t4.5 43.5v149q-61 -10 -122 -27.5t-108 -43t-76.5 -61.5t-29.5 -81v-2z" />
<glyph unicode="&#xe3;" horiz-adv-x="837" d="M47 199q0 84 49 140t116 93t134.5 56.5t106.5 29.5q27 4 50 9t42 10v69q0 35 -9.5 68t-30 58.5t-51 40.5t-75.5 15q-53 0 -109.5 -28.5t-97.5 -59.5q-63 -43 -88 37l-10 35q20 23 56 49.5t82 48t97 36t105 14.5q78 0 131 -25t87 -69t49 -104t15 -130q0 -33 -1 -87 t-2 -114.5t-1 -122t2 -106.5q0 -68 66 -68q10 0 24.5 3t24.5 7v-69q-10 -20 -43 -40t-84 -20q-61 0 -95 39t-42 92q-18 -20 -46 -43.5t-63 -43t-76 -32t-84 -12.5q-104 0 -166.5 65.5t-62.5 158.5zM172 1102q4 35 13.5 71.5t26.5 66.5t44 49.5t66 19.5h2q33 0 59.5 -18.5 t50.5 -49.5q16 -20 29.5 -34.5t25.5 -14.5q14 0 25.5 21.5t22.5 74.5q6 20 20 21q12 0 31.5 -8.5t36.5 -20.5q-10 -98 -44 -150.5t-94 -52.5q-35 0 -59.5 22.5t-52.5 53.5q-18 23 -30.5 34t-27.5 11q-18 -2 -31.5 -26.5t-23.5 -65.5q-4 -20 -16 -21q-16 0 -40 6.5t-34 10.5z M207 221q0 -53 30.5 -84t88.5 -31q31 0 61.5 11.5t57 28t49 36t34.5 37.5q6 10 10.5 24.5t4.5 43.5v149q-61 -10 -122 -27.5t-108 -43t-76.5 -61.5t-29.5 -81v-2z" />
<glyph unicode="&#xe4;" horiz-adv-x="837" d="M47 199q0 84 49 140t116 93t134.5 56.5t106.5 29.5q27 4 50 9t42 10v69q0 35 -9.5 68t-30 58.5t-51 40.5t-75.5 15q-53 0 -109.5 -28.5t-97.5 -59.5q-63 -43 -88 37l-10 35q20 23 56 49.5t82 48t97 36t105 14.5q78 0 131 -25t87 -69t49 -104t15 -130q0 -33 -1 -87 t-2 -114.5t-1 -122t2 -106.5q0 -68 66 -68q10 0 24.5 3t24.5 7v-69q-10 -20 -43 -40t-84 -20q-61 0 -95 39t-42 92q-18 -20 -46 -43.5t-63 -43t-76 -32t-84 -12.5q-104 0 -166.5 65.5t-62.5 158.5zM160 1184q0 39 22.5 65.5t65.5 26.5h2q39 0 59.5 -27.5t20.5 -58.5 q0 -43 -23.5 -66.5t-64.5 -23.5q-31 0 -56.5 20.5t-25.5 63.5zM207 221q0 -53 30.5 -84t88.5 -31q31 0 61.5 11.5t57 28t49 36t34.5 37.5q6 10 10.5 24.5t4.5 43.5v149q-61 -10 -122 -27.5t-108 -43t-76.5 -61.5t-29.5 -81v-2zM465 1184q0 39 22.5 65.5t67.5 26.5h2 q39 0 58.5 -27.5t19.5 -58.5q0 -43 -23.5 -66.5t-64.5 -23.5q-29 0 -55.5 20.5t-26.5 63.5z" />
<glyph unicode="&#xe5;" horiz-adv-x="837" d="M47 199q0 84 49 140t116 93t134.5 56.5t106.5 29.5q27 4 50 9t42 10v69q0 35 -9.5 68t-30 58.5t-51 40.5t-75.5 15q-53 0 -109.5 -28.5t-97.5 -59.5q-63 -43 -88 37l-10 35q20 23 56 49.5t82 48t97 36t105 14.5q78 0 131 -25t87 -69t49 -104t15 -130q0 -33 -1 -87 t-2 -114.5t-1 -122t2 -106.5q0 -68 66 -68q10 0 24.5 3t24.5 7v-69q-10 -20 -43 -40t-84 -20q-61 0 -95 39t-42 92q-18 -20 -46 -43.5t-63 -43t-76 -32t-84 -12.5q-104 0 -166.5 65.5t-62.5 158.5zM207 221q0 -53 30.5 -84t88.5 -31q31 0 61.5 11.5t57 28t49 36t34.5 37.5 q6 10 10.5 24.5t4.5 43.5v149q-61 -10 -122 -27.5t-108 -43t-76.5 -61.5t-29.5 -81v-2zM231 1180q0 72 46.5 122t125.5 50h3q43 0 73.5 -15.5t52 -39t31.5 -53.5t10 -60q0 -74 -48 -121t-126 -47q-66 0 -117 43t-51 121zM326 1186q0 -41 22.5 -66.5t57.5 -23.5q37 0 54 26.5 t17 59.5q0 31 -17.5 60.5t-58.5 29.5h-2q-35 0 -54 -29t-19 -57z" />
<glyph unicode="&#xe6;" horiz-adv-x="1318" d="M47 199q0 84 49 142t117 95t141.5 58.5t122.5 31.5q8 2 27.5 4t34.5 7v55q0 82 -38 139t-132 57q-53 0 -104.5 -28.5t-92.5 -59.5q-63 -43 -88 37l-10 35q20 23 56 49.5t81 48t96 36t103 14.5q98 0 156.5 -48.5t80.5 -117.5q47 74 123 120t176 46q84 0 145.5 -29 t101.5 -76t59.5 -107.5t21.5 -121.5v-35t-4 -31q-2 -12 -20.5 -25.5t-45 -23.5t-55.5 -18.5t-53 -10.5q-20 -2 -65.5 -4t-103 -2h-122t-121.5 2q0 -78 22.5 -139t64.5 -106.5t101.5 -69t133.5 -23.5q66 0 122 14.5t78 26.5l11 -18q-4 -41 -31 -74t-49 -45 q-18 -8 -69.5 -18.5t-111.5 -10.5q-102 0 -199.5 46.5t-144.5 132.5q-27 -33 -63.5 -65t-79.5 -57.5t-92 -41t-101 -15.5q-104 0 -166.5 65.5t-62.5 158.5zM207 217q0 -45 30.5 -78t86.5 -33q72 0 131 37t112 101q-6 12 -12 36.5t-10 52t-7 55.5t-3 44q-55 -10 -114 -25.5 t-107 -42t-77.5 -62.5t-29.5 -85zM690 545q61 -2 124 -2t115 1t90 2t50 3q43 0 43 43q2 96 -46 157.5t-144 61.5h-2q-82 0 -148.5 -67.5t-81.5 -198.5z" />
<glyph unicode="&#xe7;" horiz-adv-x="821" d="M55 440q0 70 15.5 128.5t40 104.5t55.5 82t61 60q66 53 146 79t159 26q57 0 104.5 -11.5t80.5 -26t52 -29.5t26 -24q0 -16 -8.5 -36.5t-18.5 -36.5q-12 -16 -29.5 -14.5t-36.5 12.5q-43 23 -90 34t-92 11q-68 0 -123 -27t-94 -73t-60.5 -108.5t-21.5 -135.5 q0 -104 35 -174t88 -110t114.5 -56.5t116.5 -16.5q57 0 102.5 7.5t86.5 19.5l6 -8q-4 -29 -17.5 -59.5t-35.5 -45.5q-23 -14 -59.5 -23t-90.5 -12l-55 -79q61 -16 92 -55.5t31 -88.5q0 -41 -22.5 -73.5t-56.5 -57t-77 -40t-82 -19.5q-20 4 -32.5 24.5t-12.5 32.5q0 4 3 10.5 t16 10.5q84 23 113.5 49t29.5 49q0 41 -48 59.5t-106 16.5v20l103 146q-72 8 -144.5 35.5t-131 81t-95.5 137t-37 204.5z" />
<glyph unicode="&#xe8;" horiz-adv-x="847" d="M55 430q0 98 28 187.5t82 156t131 106.5t175 40q86 0 147.5 -29t101.5 -76t59.5 -107.5t21.5 -123.5q0 -16 -1 -35t-5 -31q-2 -12 -20.5 -24.5t-44 -22.5t-54.5 -17.5t-53 -11.5q-20 -2 -64.5 -4t-102 -3t-120 0t-119.5 3q0 -82 22.5 -145.5t64.5 -106.5t100.5 -65.5 t127.5 -22.5q70 0 124.5 14.5t78.5 24.5l8 -14q-4 -41 -31.5 -75t-49.5 -44q-18 -8 -64.5 -18.5t-105.5 -10.5q-78 0 -161 22.5t-153 88.5q-59 59 -91 150.5t-32 193.5zM225 549q59 -2 120 -3t113 0t90 2t52 1q20 0 31.5 12t11.5 31q2 98 -48 158.5t-144 60.5h-2 q-80 0 -144.5 -69.5t-79.5 -192.5zM244 1294q-16 18 6 41q49 43 92 43q12 0 33.5 -30.5t45 -73.5t45 -89t34.5 -79q12 -31 -8 -45q-16 -12 -25.5 -18.5t-20.5 -8.5q-18 27 -41.5 59.5t-50 67.5t-55.5 70t-55 63z" />
<glyph unicode="&#xe9;" horiz-adv-x="847" d="M55 430q0 98 28 187.5t82 156t131 106.5t175 40q86 0 147.5 -29t101.5 -76t59.5 -107.5t21.5 -123.5q0 -16 -1 -35t-5 -31q-2 -12 -20.5 -24.5t-44 -22.5t-54.5 -17.5t-53 -11.5q-20 -2 -64.5 -4t-102 -3t-120 0t-119.5 3q0 -82 22.5 -145.5t64.5 -106.5t100.5 -65.5 t127.5 -22.5q70 0 124.5 14.5t78.5 24.5l8 -14q-4 -41 -31.5 -75t-49.5 -44q-18 -8 -64.5 -18.5t-105.5 -10.5q-78 0 -161 22.5t-153 88.5q-59 59 -91 150.5t-32 193.5zM225 549q59 -2 120 -3t113 0t90 2t52 1q20 0 31.5 12t11.5 31q2 98 -48 158.5t-144 60.5h-2 q-80 0 -144.5 -69.5t-79.5 -192.5zM357.5 1078.5q0.5 11.5 11.5 33.5q12 29 32.5 74t44 87t44 71.5t32.5 29.5h2q23 2 51.5 -12t45.5 -31q18 -14 -7 -39q-55 -63 -108 -135t-94 -127q-14 4 -25.5 12.5t-21.5 18.5q-8 6 -7.5 17.5z" />
<glyph unicode="&#xea;" horiz-adv-x="847" d="M55 430q0 98 28 187.5t82 156t131 106.5t175 40q86 0 147.5 -29t101.5 -76t59.5 -107.5t21.5 -123.5q0 -16 -1 -35t-5 -31q-2 -12 -20.5 -24.5t-44 -22.5t-54.5 -17.5t-53 -11.5q-20 -2 -64.5 -4t-102 -3t-120 0t-119.5 3q0 -82 22.5 -145.5t64.5 -106.5t100.5 -65.5 t127.5 -22.5q70 0 124.5 14.5t78.5 24.5l8 -14q-4 -41 -31.5 -75t-49.5 -44q-18 -8 -64.5 -18.5t-105.5 -10.5q-78 0 -161 22.5t-153 88.5q-59 59 -91 150.5t-32 193.5zM225 549q59 -2 120 -3t113 0t90 2t52 1q20 0 31.5 12t11.5 31q2 98 -48 158.5t-144 60.5h-2 q-80 0 -144.5 -69.5t-79.5 -192.5zM242 1061q41 72 79.5 134t75.5 134q12 27 33 31q16 4 32 6t30 2q41 -78 83.5 -151.5t86.5 -149.5q-12 -10 -35 -21.5t-45 -11.5q-18 0 -29 19q-20 39 -45 80t-55 100q-27 -47 -51.5 -89t-57.5 -95q-2 -2 -9 -8.5t-16 -6.5q-16 0 -39.5 8.5 t-37.5 18.5z" />
<glyph unicode="&#xeb;" horiz-adv-x="847" d="M55 430q0 98 28 187.5t82 156t131 106.5t175 40q86 0 147.5 -29t101.5 -76t59.5 -107.5t21.5 -123.5q0 -16 -1 -35t-5 -31q-2 -12 -20.5 -24.5t-44 -22.5t-54.5 -17.5t-53 -11.5q-20 -2 -64.5 -4t-102 -3t-120 0t-119.5 3q0 -82 22.5 -145.5t64.5 -106.5t100.5 -65.5 t127.5 -22.5q70 0 124.5 14.5t78.5 24.5l8 -14q-4 -41 -31.5 -75t-49.5 -44q-18 -8 -64.5 -18.5t-105.5 -10.5q-78 0 -161 22.5t-153 88.5q-59 59 -91 150.5t-32 193.5zM213 1186q0 39 22.5 64.5t65.5 25.5h2q37 0 58.5 -27.5t21.5 -56.5q0 -43 -24.5 -67.5t-63.5 -24.5 q-31 0 -56.5 20.5t-25.5 65.5zM225 549q59 -2 120 -3t113 0t90 2t52 1q20 0 31.5 12t11.5 31q2 98 -48 158.5t-144 60.5h-2q-80 0 -144.5 -69.5t-79.5 -192.5zM518 1186q0 39 22.5 64.5t67.5 25.5h2q37 0 57.5 -27.5t20.5 -56.5q0 -43 -23.5 -67.5t-64.5 -24.5 q-29 0 -55.5 20.5t-26.5 65.5z" />
<glyph unicode="&#xec;" horiz-adv-x="413" d="M10 1294q-16 18 6 41q50 43 93 43q12 0 33.5 -30.5t45 -73.5t45 -89t33.5 -79q12 -31 -8 -45q-16 -12 -25.5 -18.5t-19.5 -8.5q-18 27 -42 59.5t-50.5 67.5t-55 70t-55.5 63zM121 887q12 4 30.5 8t39 7t39 4t28.5 1q6 0 11 -3t8.5 -16.5t5.5 -39t2 -68.5v-731 q0 -29 -8.5 -38t-30.5 -13q-20 -4 -51 -6t-72 -4q2 61 4 145t2 176v344q0 96 -2 147.5t-6 86.5z" />
<glyph unicode="&#xed;" horiz-adv-x="413" d="M121 887q12 4 30.5 8t39 7t39 4t28.5 1q6 0 11 -3t8.5 -16.5t5.5 -39t2 -68.5v-731q0 -29 -8.5 -38t-30.5 -13q-20 -4 -51 -6t-72 -4q2 61 4 145t2 176v344q0 96 -2 147.5t-6 86.5zM123 1078.5q0 11.5 10 33.5q12 29 33.5 74t45.5 87t44.5 71.5t32.5 29.5q23 2 51.5 -12 t44.5 -31q18 -14 -4 -39q-57 -63 -110.5 -135t-92.5 -127q-16 4 -27.5 12.5t-21.5 18.5q-6 6 -6 17.5z" />
<glyph unicode="&#xee;" horiz-adv-x="413" d="M-2 1061q41 72 80 134t74 134q10 16 16 21.5t18 9.5q16 4 32 6t28 2q41 -78 84 -151.5t88 -149.5q-12 -10 -35 -21.5t-45 -11.5q-18 0 -29 19q-20 39 -44.5 80t-57.5 100q-25 -47 -50.5 -89t-56.5 -95q-2 -2 -9 -8.5t-15 -6.5q-16 0 -40 8.5t-38 18.5zM121 887 q12 4 30.5 8t39 7t39 4t28.5 1q6 0 11 -3t8.5 -16.5t5.5 -39t2 -68.5v-731q0 -29 -8.5 -38t-30.5 -13q-20 -4 -51 -6t-72 -4q2 61 4 145t2 176v344q0 96 -2 147.5t-6 86.5z" />
<glyph unicode="&#xef;" horiz-adv-x="413" d="M-23 1186q0 39 24 64.5t67 25.5h2q37 0 57 -27.5t20 -56.5q0 -43 -23.5 -67.5t-62.5 -24.5q-33 0 -58.5 20.5t-25.5 65.5zM121 887q12 4 30.5 8t39 7t39 4t28.5 1q6 0 11 -3t8.5 -16.5t5.5 -39t2 -68.5v-731q0 -29 -8.5 -38t-30.5 -13q-20 -4 -51 -6t-72 -4q2 61 4 145 t2 176v344q0 96 -2 147.5t-6 86.5zM285 1186q0 39 21.5 64.5t66.5 25.5h2q39 0 58.5 -27.5t19.5 -56.5q0 -43 -23.5 -67.5t-64.5 -24.5q-29 0 -54.5 20.5t-25.5 65.5z" />
<glyph unicode="&#xf0;" horiz-adv-x="985" d="M55 424q0 125 40 215t114 156q76 70 159 96.5t169 26.5q43 0 91 -9.5t89 -36.5q-29 78 -62.5 133.5t-81.5 100.5l-294 -145q-14 -8 -23.5 -1t-9.5 25q0 33 7 52.5t17 31.5l219 107q-63 47 -147 80.5t-162 43.5l-8 25l49 51q16 16 47 17q31 0 74 -11.5t91 -32t97.5 -49 t90.5 -61.5l237 121q35 16 35 -17q0 -31 -6 -56t-29 -40l-153 -80q113 -117 172 -285.5t59 -365.5q0 -133 -34 -234.5t-93 -169t-141 -102.5t-179 -35q-98 0 -178 33t-136 93.5t-88 142.5t-32 180zM223 440q0 -98 26.5 -165.5t66.5 -109.5t88.5 -59.5t91.5 -17.5 q59 0 110 25.5t88 79t57.5 135.5t20.5 196q0 72 -9 124t-20 81q-35 35 -95 55.5t-126 20.5h-2q-59 0 -112.5 -21.5t-94.5 -66.5t-65.5 -113.5t-24.5 -163.5z" />
<glyph unicode="&#xf1;" horiz-adv-x="999" d="M88 827v25q10 16 30.5 34.5t37.5 28.5q27 4 45 -4q41 -10 60.5 -53t23.5 -96q76 82 151 121q29 16 66 26.5t76 10.5q84 0 140 -28t90 -75t48 -112.5t14 -139.5v-311q0 -92 3.5 -153.5t7.5 -96.5q-31 -4 -68 -10t-74 -6q-27 0 -26 28l2 541q0 127 -48.5 180.5t-131.5 53.5 q-41 0 -77 -15.5t-68 -38t-56.5 -51.5t-40.5 -53v-586q0 -33 -8.5 -42t-32.5 -11q-31 -4 -61.5 -4t-59.5 -2q6 98 6 379v344q0 53 -13 78.5t-36 37.5zM260 1102q4 35 13.5 71.5t26.5 66.5t45 49.5t67 19.5h2q33 0 59.5 -18.5t50.5 -49.5q16 -20 29.5 -34.5t24.5 -14.5 q14 0 25 21.5t22 74.5q6 20 20 21q12 0 32.5 -8.5t37.5 -20.5q-10 -98 -44 -150.5t-93 -52.5q-35 0 -60.5 22.5t-54.5 55.5q-18 23 -29.5 33t-27.5 10t-30 -25.5t-24 -66.5q-4 -20 -16 -21q-16 0 -41 6.5t-35 10.5z" />
<glyph unicode="&#xf2;" horiz-adv-x="1017" d="M55 442q0 109 37 200t109 155q59 59 137 91t166 32h2q113 0 197.5 -38t143 -101.5t88.5 -148.5t30 -179q0 -74 -15.5 -132.5t-38 -104.5t-51.5 -81t-55 -57q-53 -47 -129 -75t-162 -28q-115 0 -201 40t-143 105.5t-86 149.5t-29 172zM223 457q0 -92 25.5 -163t66.5 -117 t95.5 -69.5t113.5 -21.5q47 0 95.5 19.5t88.5 62.5t64.5 112.5t24.5 168.5q0 86 -23.5 153.5t-63.5 113.5t-92.5 69.5t-109.5 23.5h-2q-53 0 -103.5 -22.5t-90.5 -66.5t-64.5 -109.5t-24.5 -153.5zM313 1294q-16 18 6 41q50 43 93 43q12 0 33.5 -30.5t45 -73.5t45 -89 t33.5 -79q12 -31 -8 -45q-16 -12 -25.5 -18.5t-19.5 -8.5q-18 27 -41.5 59.5t-50.5 67.5t-55.5 70t-55.5 63z" />
<glyph unicode="&#xf3;" horiz-adv-x="1017" d="M55 442q0 109 37 200t109 155q59 59 137 91t166 32h2q113 0 197.5 -38t143 -101.5t88.5 -148.5t30 -179q0 -74 -15.5 -132.5t-38 -104.5t-51.5 -81t-55 -57q-53 -47 -129 -75t-162 -28q-115 0 -201 40t-143 105.5t-86 149.5t-29 172zM223 457q0 -92 25.5 -163t66.5 -117 t95.5 -69.5t113.5 -21.5q47 0 95.5 19.5t88.5 62.5t64.5 112.5t24.5 168.5q0 86 -23.5 153.5t-63.5 113.5t-92.5 69.5t-109.5 23.5h-2q-53 0 -103.5 -22.5t-90.5 -66.5t-64.5 -109.5t-24.5 -153.5zM411 1078.5q1 11.5 11 33.5q12 29 32.5 74t44 87t44 71.5t32.5 29.5h3 q23 2 51 -12t45 -31q18 -14 -4 -39q-57 -63 -110.5 -135t-92.5 -127q-16 4 -27.5 12.5t-21.5 18.5q-8 6 -7 17.5z" />
<glyph unicode="&#xf4;" horiz-adv-x="1017" d="M55 442q0 109 37 200t109 155q59 59 137 91t166 32h2q113 0 197.5 -38t143 -101.5t88.5 -148.5t30 -179q0 -74 -15.5 -132.5t-38 -104.5t-51.5 -81t-55 -57q-53 -47 -129 -75t-162 -28q-115 0 -201 40t-143 105.5t-86 149.5t-29 172zM223 457q0 -92 25.5 -163t66.5 -117 t95.5 -69.5t113.5 -21.5q47 0 95.5 19.5t88.5 62.5t64.5 112.5t24.5 168.5q0 86 -23.5 153.5t-63.5 113.5t-92.5 69.5t-109.5 23.5h-2q-53 0 -103.5 -22.5t-90.5 -66.5t-64.5 -109.5t-24.5 -153.5zM315 1061q41 72 80 134t76 134q8 16 15.5 21.5t19.5 9.5q16 4 30.5 6 t28.5 2q41 -78 84 -151.5t86 -149.5q-10 -10 -32.5 -21.5t-45.5 -11.5q-20 0 -30 19q-18 39 -44 80t-57 100q-27 -47 -51 -89t-55 -95q-4 -2 -11.5 -8.5t-15.5 -6.5q-16 0 -39.5 8.5t-38.5 18.5z" />
<glyph unicode="&#xf5;" horiz-adv-x="1017" d="M55 442q0 109 37 200t109 155q59 59 137 91t166 32h2q113 0 197.5 -38t143 -101.5t88.5 -148.5t30 -179q0 -74 -15.5 -132.5t-38 -104.5t-51.5 -81t-55 -57q-53 -47 -129 -75t-162 -28q-115 0 -201 40t-143 105.5t-86 149.5t-29 172zM223 457q0 -92 25.5 -163t66.5 -117 t95.5 -69.5t113.5 -21.5q47 0 95.5 19.5t88.5 62.5t64.5 112.5t24.5 168.5q0 86 -23.5 153.5t-63.5 113.5t-92.5 69.5t-109.5 23.5h-2q-53 0 -103.5 -22.5t-90.5 -66.5t-64.5 -109.5t-24.5 -153.5zM268 1102q4 35 13.5 71.5t27 66.5t44 49.5t65.5 19.5h2q33 0 59.5 -18.5 t50.5 -49.5q16 -20 29.5 -34.5t26.5 -14.5q14 0 25.5 21.5t21.5 74.5q6 20 20 21q12 0 32 -8.5t36 -20.5q-10 -98 -44 -150.5t-93 -52.5q-35 0 -59.5 22.5t-53.5 55.5q-18 23 -30.5 33t-26.5 10q-18 0 -31.5 -25.5t-24.5 -66.5q-4 -20 -16 -21q-16 0 -39.5 6.5t-34.5 10.5z " />
<glyph unicode="&#xf6;" horiz-adv-x="1017" d="M55 442q0 109 37 200t109 155q59 59 137 91t166 32h2q113 0 197.5 -38t143 -101.5t88.5 -148.5t30 -179q0 -74 -15.5 -132.5t-38 -104.5t-51.5 -81t-55 -57q-53 -47 -129 -75t-162 -28q-115 0 -201 40t-143 105.5t-86 149.5t-29 172zM223 457q0 -92 25.5 -163t66.5 -117 t95.5 -69.5t113.5 -21.5q47 0 95.5 19.5t88.5 62.5t64.5 112.5t24.5 168.5q0 86 -23.5 153.5t-63.5 113.5t-92.5 69.5t-109.5 23.5h-2q-53 0 -103.5 -22.5t-90.5 -66.5t-64.5 -109.5t-24.5 -153.5zM260 1186q0 39 23.5 64.5t64.5 25.5h2q39 0 59.5 -27.5t20.5 -56.5 q0 -43 -23.5 -67.5t-64.5 -24.5q-31 0 -56.5 20.5t-25.5 65.5zM565 1186q0 39 22.5 64.5t67.5 25.5h2q39 0 58.5 -27.5t19.5 -56.5q0 -43 -23.5 -67.5t-64.5 -24.5q-29 0 -55.5 20.5t-26.5 65.5z" />
<glyph unicode="&#xf7;" horiz-adv-x="1120" d="M125 436q2 49 14.5 77t40.5 28h817q-2 -49 -15 -77t-48 -28h-809zM471 193q0 37 25.5 61.5t60.5 24.5h2q31 0 56.5 -25t25.5 -61q0 -35 -25.5 -63t-58.5 -28q-35 0 -60.5 28t-25.5 63zM475 786q0 35 25.5 61.5t58.5 26.5q37 0 61.5 -26.5t24.5 -61.5t-24.5 -61.5 t-61.5 -26.5h-2q-31 0 -56.5 27t-25.5 61z" />
<glyph unicode="&#xf8;" horiz-adv-x="1017" d="M55 442q0 109 38 200t116 161q59 53 136 85t169 32q72 0 125 -13.5t106 -46.5q27 35 41.5 55.5t26.5 36.5q23 31 35 35t24 -10q25 -27 33 -59l-84 -113q72 -63 107 -155.5t35 -198.5q0 -72 -14.5 -131.5t-38 -105.5t-52.5 -80t-55 -58q-53 -45 -127 -73t-158 -28 q-152 0 -248 62q-33 -43 -52 -69.5t-36 -49.5q-16 -23 -27.5 -26t-25.5 14q-10 12 -18.5 25.5t-12.5 27.5q18 27 40 56.5t57 76.5q-72 66 -106 159t-34 191zM215 451q0 -74 18.5 -130.5t51.5 -101.5l385 535q-37 31 -76 43t-86 12q-55 0 -108.5 -23.5t-94.5 -68.5 t-65.5 -112.5t-24.5 -153.5zM346 145q76 -61 174 -61q49 0 98.5 19.5t90.5 62.5t66.5 110.5t25.5 163.5q0 80 -18.5 140.5t-51.5 101.5z" />
<glyph unicode="&#xf9;" horiz-adv-x="993" d="M121 887q25 10 68.5 15t68.5 5q6 0 11 -3t8.5 -16.5t5.5 -39t2 -68.5v-415q0 -86 17 -137.5t45 -78t60.5 -35t63.5 -8.5q37 0 73 12.5t64.5 32t52 42t35.5 45.5v589q0 35 6.5 48.5t24.5 17.5q37 6 69.5 10t61.5 4q0 -35 -3 -134t-3 -232v-328q0 -39 8 -63.5t22.5 -39 t33 -20.5t38.5 -10v-31q-8 -23 -30.5 -48.5t-53.5 -25.5q-59 0 -104 40t-53 106q-51 -53 -93 -80t-71 -39q-59 -27 -123 -27q-154 0 -225.5 88.5t-71.5 235.5v356q0 94 -2 145.5t-6 86.5zM291 1294q-16 18 6 41q49 43 92 43q12 0 33.5 -30.5t45.5 -73.5t45.5 -89t33.5 -79 q12 -31 -8 -45q-16 -12 -25.5 -18.5t-19.5 -8.5q-18 27 -42 59.5t-50.5 67.5t-55.5 70t-55 63z" />
<glyph unicode="&#xfa;" horiz-adv-x="993" d="M121 887q25 10 68.5 15t68.5 5q6 0 11 -3t8.5 -16.5t5.5 -39t2 -68.5v-415q0 -86 17 -137.5t45 -78t60.5 -35t63.5 -8.5q37 0 73 12.5t64.5 32t52 42t35.5 45.5v589q0 35 6.5 48.5t24.5 17.5q37 6 69.5 10t61.5 4q0 -35 -3 -134t-3 -232v-328q0 -39 8 -63.5t22.5 -39 t33 -20.5t38.5 -10v-31q-8 -23 -30.5 -48.5t-53.5 -25.5q-59 0 -104 40t-53 106q-51 -53 -93 -80t-71 -39q-59 -27 -123 -27q-154 0 -225.5 88.5t-71.5 235.5v356q0 94 -2 145.5t-6 86.5zM399.5 1078.5q-0.5 11.5 10.5 33.5q12 29 33.5 74t45 87t44 71.5t32.5 29.5h2 q23 2 51.5 -12t45.5 -31q8 -8 8 -16t-15 -23q-55 -63 -108 -135t-94 -127q-14 4 -25.5 12.5t-21.5 18.5q-8 6 -8.5 17.5z" />
<glyph unicode="&#xfb;" horiz-adv-x="993" d="M121 887q25 10 68.5 15t68.5 5q6 0 11 -3t8.5 -16.5t5.5 -39t2 -68.5v-415q0 -86 17 -137.5t45 -78t60.5 -35t63.5 -8.5q37 0 73 12.5t64.5 32t52 42t35.5 45.5v589q0 35 6.5 48.5t24.5 17.5q37 6 69.5 10t61.5 4q0 -35 -3 -134t-3 -232v-328q0 -39 8 -63.5t22.5 -39 t33 -20.5t38.5 -10v-31q-8 -23 -30.5 -48.5t-53.5 -25.5q-59 0 -104 40t-53 106q-51 -53 -93 -80t-71 -39q-59 -27 -123 -27q-154 0 -225.5 88.5t-71.5 235.5v356q0 94 -2 145.5t-6 86.5zM274 1061q41 72 80 134t76 134q8 16 15.5 21.5t19.5 9.5q16 4 30.5 6t28.5 2 q41 -78 84 -151.5t86 -149.5q-10 -10 -32.5 -21.5t-45.5 -11.5q-20 0 -30 19q-18 39 -44 80t-57 100q-27 -47 -51 -89t-55 -95q-4 -2 -11.5 -8.5t-15.5 -6.5q-16 0 -39.5 8.5t-38.5 18.5z" />
<glyph unicode="&#xfc;" horiz-adv-x="993" d="M121 887q25 10 68.5 15t68.5 5q6 0 11 -3t8.5 -16.5t5.5 -39t2 -68.5v-415q0 -86 17 -137.5t45 -78t60.5 -35t63.5 -8.5q37 0 73 12.5t64.5 32t52 42t35.5 45.5v589q0 35 6.5 48.5t24.5 17.5q37 6 69.5 10t61.5 4q0 -35 -3 -134t-3 -232v-328q0 -39 8 -63.5t22.5 -39 t33 -20.5t38.5 -10v-31q-8 -23 -30.5 -48.5t-53.5 -25.5q-59 0 -104 40t-53 106q-51 -53 -93 -80t-71 -39q-59 -27 -123 -27q-154 0 -225.5 88.5t-71.5 235.5v356q0 94 -2 145.5t-6 86.5zM246 1186q0 39 23.5 64.5t66.5 25.5h2q37 0 57.5 -27.5t20.5 -56.5 q0 -43 -23.5 -67.5t-64.5 -24.5q-31 0 -56.5 20.5t-25.5 65.5zM551 1186q0 39 22.5 64.5t67.5 25.5h2q39 0 58.5 -27.5t19.5 -56.5q0 -43 -23.5 -67.5t-64.5 -24.5q-29 0 -55.5 20.5t-26.5 65.5z" />
<glyph unicode="&#xfd;" horiz-adv-x="829" d="M27 872q25 18 63.5 33t63.5 15h2q16 0 24 -9.5t19 -25.5q8 -20 26.5 -66.5t42 -109t50 -134t52 -140t47 -128t36.5 -98.5q31 72 64.5 168t64 195.5t56.5 191.5t38 156q53 0 108 -17q39 -14 23 -74q-10 -41 -39 -134t-71 -211.5t-96 -251t-118 -250.5q-68 -127 -124 -208 t-100 -128t-74.5 -65.5t-47.5 -18.5q-33 0 -62.5 16t-45.5 33v14q80 53 169 168t160 260q-10 14 -17 35t-17 45q-8 20 -26.5 69.5t-43.5 114t-54.5 141.5t-60 151.5t-59.5 143t-53 119.5zM356 1078.5q0 11.5 11 33.5q12 29 33.5 74t44 87t44 71.5t33.5 29.5q23 2 51.5 -12 t44.5 -31q18 -14 -4 -39q-57 -63 -110 -135t-92 -127q-16 4 -27.5 12.5t-22.5 18.5q-6 6 -6 17.5z" />
<glyph unicode="&#xfe;" horiz-adv-x="1019" d="M121 1366q14 6 33.5 11t39 8.5t37 5.5t27.5 2q8 0 13 -3.5t8.5 -17.5t5.5 -40.5t2 -71.5v-465q76 63 147.5 94t155.5 31q68 0 134.5 -25t119.5 -77t87 -136t34 -201q0 -143 -52.5 -240.5t-130.5 -158.5q-72 -61 -156.5 -84t-152.5 -23q-53 0 -106.5 11.5t-81.5 25.5v-395 q0 -25 -6.5 -33t-30.5 -16q-35 -4 -63.5 -6t-61.5 -2q6 86 6 366v797v416q0 92 -2 144t-6 83zM285 135q41 -25 89 -37t91 -12q39 0 96 16.5t109.5 60.5t89.5 120.5t37 197.5q0 141 -70 224t-190 83q-37 0 -76 -12t-73 -30.5t-60.5 -39t-42.5 -34.5v-537z" />
<glyph unicode="&#xff;" horiz-adv-x="829" d="M27 872q25 18 63.5 33t63.5 15h2q16 0 24 -9.5t19 -25.5q8 -20 26.5 -66.5t42 -109t50 -134t52 -140t47 -128t36.5 -98.5q31 72 64.5 168t64 195.5t56.5 191.5t38 156q53 0 108 -17q39 -14 23 -74q-10 -41 -39 -134t-71 -211.5t-96 -251t-118 -250.5q-68 -127 -124 -208 t-100 -128t-74.5 -65.5t-47.5 -18.5q-33 0 -62.5 16t-45.5 33v14q80 53 169 168t160 260q-10 14 -17 35t-17 45q-8 20 -26.5 69.5t-43.5 114t-54.5 141.5t-60 151.5t-59.5 143t-53 119.5zM201 1186q0 39 22.5 64.5t65.5 25.5h2q39 0 59.5 -27.5t20.5 -56.5 q0 -43 -23.5 -67.5t-64.5 -24.5q-31 0 -56.5 20.5t-25.5 65.5zM506 1186q0 39 22.5 64.5t67.5 25.5h2q39 0 58.5 -27.5t19.5 -56.5q0 -43 -23.5 -67.5t-64.5 -24.5q-29 0 -55.5 20.5t-26.5 65.5z" />
<glyph unicode="&#x152;" horiz-adv-x="1894" d="M68 618q0 188 71.5 333t196.5 237q88 61 178 92t199 31q154 0 272.5 -56.5t188.5 -167.5v168q23 8 62.5 14.5t76.5 10.5h504q-8 -35 -22.5 -58.5t-35.5 -43.5q-16 -10 -49 -13.5t-102 -3.5h-273v-444h459q-10 -43 -22.5 -66.5t-27.5 -35t-35.5 -13.5t-45.5 -2h-328v-477 q14 -4 41 -7t58.5 -5t66.5 -3.5t68 -1.5q72 0 156.5 1.5t142.5 9.5l4 -4q-10 -41 -32.5 -72t-59.5 -45q-20 -4 -73.5 -6t-158.5 -2q-127 0 -217 5t-127 15l-30 41v160q-74 -117 -199 -178.5t-273 -61.5q-176 0 -296.5 60.5t-195.5 155t-108.5 210t-33.5 223.5zM246 635 q0 -152 43 -257.5t111.5 -171t152.5 -94t164 -28.5q86 0 170 28.5t148.5 95t104.5 173t40 260.5q0 172 -43 280.5t-111 169t-150.5 83t-160.5 22.5q-80 0 -163 -34t-151.5 -102.5t-111.5 -174t-43 -248.5v-2z" />
<glyph unicode="&#x153;" horiz-adv-x="1579" d="M53 438q0 111 39 205t121 166q57 51 137 81t162 30h2q121 0 214 -55.5t146 -159.5q47 98 131.5 156.5t200.5 58.5q84 0 144.5 -29t100.5 -76t59.5 -107.5t21.5 -121.5v-35t-4 -31q-2 -12 -20.5 -24.5t-44 -22.5t-55.5 -17t-54 -10q-20 -4 -65.5 -5t-102 -1h-119.5t-123 2 q0 -78 22.5 -141t64.5 -108.5t101.5 -69t131.5 -23.5q66 0 122 14.5t80 24.5l9 -16q-4 -41 -30 -73t-50 -46q-18 -8 -68.5 -18.5t-103.5 -10.5q-57 0 -111.5 13.5t-101.5 39t-84 63.5t-62 89q-53 -98 -148 -151.5t-214 -53.5q-111 0 -195 39t-140 103.5t-85 147.5t-29 173z M223 453q0 -92 24.5 -160t64.5 -114t92.5 -68.5t107.5 -22.5q45 0 94 17.5t91 59.5t70 112.5t28 175.5q0 86 -25 152.5t-65.5 110.5t-94 67.5t-108.5 23.5h-2q-49 0 -99.5 -21.5t-89.5 -64.5t-63.5 -109.5t-24.5 -158.5zM956 549q59 -2 121 -2h114t89 2t49 2q45 4 45 39 q2 98 -47 159.5t-143 61.5h-2q-84 0 -145.5 -66.5t-80.5 -195.5z" />
<glyph unicode="&#x178;" horiz-adv-x="1107" d="M33 1247v13q31 10 70.5 18t68.5 8q35 0 104 -104q27 -39 63 -89.5t74 -105.5t78.5 -114.5t79.5 -114.5q18 25 50 68.5t70 97t79 111t76 107.5t61.5 89t36.5 55q41 0 66.5 -5t46.5 -11q18 -6 22 -25.5t-18 -50.5q-14 -18 -47 -63.5t-75 -101.5t-88 -117.5t-87 -115 t-69.5 -92t-37.5 -49.5q-12 -16 -16 -37.5t-4 -42.5v-325q0 -104 2 -159.5t4 -86.5q-23 -8 -61.5 -12t-81.5 -4q-16 0 -22.5 7t-6.5 30v534q0 55 -14 86q-10 20 -46 74.5t-87 126.5q-31 43 -69 96t-77 107.5t-77 105.5t-68 92zM322 1450q0 39 23.5 65.5t68.5 26.5h2 q37 0 58.5 -27.5t21.5 -58.5q0 -45 -25 -69.5t-65 -24.5q-33 0 -58.5 20.5t-25.5 67.5zM637 1450q0 39 22.5 65.5t67.5 26.5h2q41 0 60.5 -27.5t19.5 -58.5q0 -45 -24.5 -69.5t-65.5 -24.5q-29 0 -55.5 20.5t-26.5 67.5z" />
<glyph unicode="&#x2c6;" horiz-adv-x="819" d="M199 1061q43 72 81.5 134t73.5 134q8 16 15.5 21.5t19.5 9.5q16 4 31 6t29 2q41 -78 83.5 -151.5t88.5 -149.5q-12 -10 -35 -21.5t-45 -11.5q-18 0 -29 19q-20 39 -46 80t-56 100q-27 -47 -51.5 -89t-55.5 -95q-2 -2 -9 -8.5t-15 -6.5q-18 0 -42 8.5t-38 18.5z" />
<glyph unicode="&#x2dc;" horiz-adv-x="819" d="M182 1102q4 35 13.5 71.5t27 66.5t44 49.5t67.5 19.5h2q31 0 58.5 -18.5t49.5 -49.5q16 -20 30.5 -34.5t25.5 -14.5q14 0 25.5 21.5t21.5 74.5q6 20 20 21q12 0 33 -8.5t35 -20.5q-10 -98 -44 -150.5t-93 -52.5q-35 0 -59.5 22.5t-53.5 55.5q-18 23 -29.5 33t-27.5 10 q-18 0 -31.5 -25.5t-24.5 -66.5q-4 -20 -16 -21q-16 0 -39.5 6.5t-34.5 10.5z" />
<glyph unicode="&#x2000;" horiz-adv-x="846" />
<glyph unicode="&#x2001;" horiz-adv-x="1692" />
<glyph unicode="&#x2002;" horiz-adv-x="846" />
<glyph unicode="&#x2003;" horiz-adv-x="1692" />
<glyph unicode="&#x2004;" horiz-adv-x="564" />
<glyph unicode="&#x2005;" horiz-adv-x="423" />
<glyph unicode="&#x2006;" horiz-adv-x="282" />
<glyph unicode="&#x2007;" horiz-adv-x="282" />
<glyph unicode="&#x2008;" horiz-adv-x="211" />
<glyph unicode="&#x2009;" horiz-adv-x="338" />
<glyph unicode="&#x200a;" horiz-adv-x="94" />
<glyph unicode="&#x2010;" horiz-adv-x="581" d="M61 391q14 53 32 85t34 34q43 6 96 15.5t106.5 18.5t100.5 19t78 19l12 -29q-4 -12 -13 -30.5t-23.5 -37t-33 -33t-40.5 -20.5q-29 -10 -71 -19.5t-88 -16.5t-91 -13t-80 -6z" />
<glyph unicode="&#x2011;" horiz-adv-x="581" d="M61 391q14 53 32 85t34 34q43 6 96 15.5t106.5 18.5t100.5 19t78 19l12 -29q-4 -12 -13 -30.5t-23.5 -37t-33 -33t-40.5 -20.5q-29 -10 -71 -19.5t-88 -16.5t-91 -13t-80 -6z" />
<glyph unicode="&#x2012;" horiz-adv-x="581" d="M61 391q14 53 32 85t34 34q43 6 96 15.5t106.5 18.5t100.5 19t78 19l12 -29q-4 -12 -13 -30.5t-23.5 -37t-33 -33t-40.5 -20.5q-29 -10 -71 -19.5t-88 -16.5t-91 -13t-80 -6z" />
<glyph unicode="&#x2013;" horiz-adv-x="1079" d="M92 434l6 55q4 37 20.5 51.5t37.5 14.5h831l-6 -53q-8 -43 -18.5 -55.5t-26.5 -12.5h-844z" />
<glyph unicode="&#x2014;" horiz-adv-x="1837" d="M92 434l6 55q4 37 20.5 51.5t37.5 14.5h1589l-8 -53q-4 -45 -15.5 -56.5t-27.5 -11.5h-1602z" />
<glyph unicode="&#x2018;" horiz-adv-x="344" d="M57 1069q0 41 11.5 86t29 86t39 76t41.5 53q20 20 47 29.5t72 7.5q-31 -57 -60.5 -143t-29.5 -172q0 -18 1 -38t5 -36q-18 -16 -47 -28.5t-53 -12.5q-33 0 -44.5 27.5t-11.5 64.5z" />
<glyph unicode="&#x2019;" horiz-adv-x="344" d="M53 967q31 57 60.5 142t29.5 171q0 18 -2 37.5t-6 38.5q18 14 47 27.5t56 13.5q33 0 43 -29t10 -65q0 -41 -11.5 -85t-29 -86t-39 -77t-41.5 -54q-35 -36 -117 -34z" />
<glyph unicode="&#x201a;" horiz-adv-x="331" d="M-4 -215q49 68 82 156t33 170q0 29 -4.5 49t-8.5 37q23 14 52.5 28.5t56.5 14.5h2q33 0 47 -37t14 -74q0 -43 -15 -91t-40 -93t-53.5 -81t-55.5 -57q-37 -25 -110 -22z" />
<glyph unicode="&#x201c;" horiz-adv-x="636" d="M57 1069q0 41 11.5 86t29 86t39 76t41.5 53q20 20 47 29.5t72 7.5q-31 -57 -60.5 -143t-29.5 -172q0 -18 1 -38t5 -36q-18 -16 -47 -28.5t-53 -12.5q-33 0 -44.5 27.5t-11.5 64.5zM350 1069q0 41 11.5 86t29 86t39 76t41.5 53q20 20 47 29.5t72 7.5q-31 -57 -60.5 -143 t-29.5 -172q0 -41 6 -74q-18 -16 -47 -28.5t-53 -12.5q-33 0 -44.5 27.5t-11.5 64.5z" />
<glyph unicode="&#x201d;" horiz-adv-x="636" d="M53 967q31 57 60.5 142t29.5 171q0 18 -2 37.5t-6 38.5q18 14 47 27.5t56 13.5q33 0 43 -29t10 -65q0 -41 -11.5 -85t-29 -86t-39 -77t-41.5 -54q-35 -36 -117 -34zM346 967q31 57 60.5 142t29.5 171q0 18 -2 37.5t-6 38.5q18 14 47 27.5t55 13.5q33 0 43.5 -29t10.5 -65 q0 -41 -11.5 -85t-29 -86t-39 -77t-41.5 -54q-35 -36 -117 -34z" />
<glyph unicode="&#x201e;" horiz-adv-x="616" d="M8 -205q41 66 73 152t32 166q0 29 -4.5 48t-8.5 36q20 14 50 28.5t55 14.5q35 0 48 -37t13 -68q0 -43 -14 -91t-35.5 -92t-49.5 -80t-52 -54q-35 -27 -107 -23zM297 -205q41 66 71.5 152t30.5 166q0 29 -3 48t-7 36q23 14 50.5 28.5t56.5 14.5q16 0 27.5 -11.5t18.5 -27 t10 -33.5t3 -33q0 -43 -14.5 -91t-37 -92t-49 -80t-53.5 -54q-30 -27 -104 -23z" />
<glyph unicode="&#x2022;" horiz-adv-x="540" d="M106 487q0 70 43.5 121t124.5 51h2q39 0 69 -15t49.5 -38.5t28.5 -54.5t9 -62q0 -82 -45 -130t-123 -48q-59 0 -108.5 47.5t-49.5 128.5z" />
<glyph unicode="&#x2026;" horiz-adv-x="1589" d="M150 82q0 43 28.5 74.5t77.5 31.5h4q41 0 64.5 -32.5t23.5 -69.5q0 -47 -27.5 -78t-74.5 -31q-33 0 -64.5 26t-31.5 79zM680 82q0 43 26.5 74.5t77.5 31.5h4q41 0 66 -32.5t25 -69.5q0 -47 -28 -78t-75 -31q-35 0 -65.5 26t-30.5 79zM1210 82q0 43 27 74.5t80 31.5h2 q43 0 66.5 -32.5t23.5 -69.5q0 -47 -27.5 -78t-74.5 -31q-35 0 -66 26t-31 79z" />
<glyph unicode="&#x202f;" horiz-adv-x="338" />
<glyph unicode="&#x2039;" horiz-adv-x="571" d="M94 483q86 80 169 179.5t157 209.5q16 -10 34.5 -32.5t20.5 -51.5q0 -20 -30.5 -66t-69.5 -98.5t-76 -97.5t-49 -61q12 -16 48 -63.5t73 -101.5t65.5 -101t28.5 -66q0 -25 -20.5 -46t-43.5 -30q-137 211 -290 375q-6 12 -11.5 25.5t-5.5 25.5z" />
<glyph unicode="&#x203a;" horiz-adv-x="571" d="M94 141q0 20 31 66.5t69.5 98.5t75.5 97.5t49 61.5q-12 16 -46.5 63t-71.5 100.5t-66 101.5t-29 67q0 25 20.5 46t41.5 29q68 -104 142.5 -199t150.5 -175q14 -29 14 -52q-78 -80 -162 -179t-161 -210q-16 10 -36 33t-22 51z" />
<glyph unicode="&#x205f;" horiz-adv-x="423" />
<glyph unicode="&#x2122;" horiz-adv-x="796" d="M41 1243q4 18 10 27.5t10 13.5q6 -2 21.5 -2h56.5h203q0 -16 -11.5 -33.5t-21.5 -21.5h-90v-187q0 -25 1 -39t1 -22l-53 -4q-14 0 -14 10v242h-103q-12 0 -10 16zM326 979q10 45 29.5 124t35.5 150l-6 21q10 4 34.5 7t33.5 3q6 0 11 -9t19 -44l60 -144q6 14 18 38 t24.5 49.5t26 51t23.5 44.5v6q10 4 32.5 6t30.5 2q4 0 9 -16l26 -178q6 -39 11.5 -66t9.5 -45q-10 -4 -28.5 -6t-31.5 -2q-14 0 -14 14q-4 20 -6 41t-6 43l-17 131q-10 -25 -37.5 -88t-56.5 -129q-18 -4 -22.5 -4h-20.5q-4 12 -15.5 40t-24.5 60.5t-25.5 63.5t-18.5 47 q-2 -12 -7 -39t-11 -57.5t-11.5 -60t-9.5 -50.5q-2 -12 -10 -12q-35 0 -55 8z" />
<glyph unicode="&#xe000;" horiz-adv-x="921" d="M0 0v922h922v-922h-922z" />
</font>
</defs>
</svg>
